<svg width="18" height="36" viewBox="0 0 18 36" fill="none" xmlns="http://www.w3.org/2000/svg">
<path d="M3.94336 6.79853C3.94336 6.58005 3.9737 6.10819 4.03439 5.38598C4.09963 4.66225 4.37274 3.90515 4.8628 3.11012C5.34832 2.31812 6.13577 1.60653 7.23122 0.976875C8.32211 0.350254 9.89853 0.034668 11.9559 0.034668H17.7518V6.35094H13.508C13.0878 6.35094 12.6963 6.50874 12.3428 6.81977C11.9923 7.13081 11.8118 7.42667 11.8118 7.70129V11.6309H17.7503C17.688 12.4002 17.6198 13.1482 17.5409 13.8704L17.3057 15.7791C17.2116 16.4239 17.116 17.0217 17.022 17.5725H11.7693V35.0845H3.94336V17.5709H0.125977V11.6309H3.94336V6.79853Z" fill="white"/>
</svg>
