<svg width="42" height="41" viewBox="0 0 42 41" fill="none" xmlns="http://www.w3.org/2000/svg">
<path d="M30.4531 0H12.0977C5.86426 0 0.792969 5.07153 0.792969 11.3049V29.6603C0.792969 35.894 5.86426 40.9653 12.0977 40.9653H30.4531C36.687 40.9653 41.7582 35.8937 41.7582 29.6603V11.3049C41.7585 5.07153 36.687 0 30.4531 0ZM38.1238 29.6603C38.1238 33.8898 34.6828 37.3306 30.4533 37.3306H12.0977C7.8684 37.3309 4.42761 33.8898 4.42761 29.6603V11.3049C4.42761 7.07567 7.8684 3.63464 12.0977 3.63464H30.4531C34.6826 3.63464 38.1236 7.07567 38.1236 11.3049V29.6603H38.1238Z" fill="white"/>
<path d="M21.2754 9.92725C15.4549 9.92725 10.7197 14.6625 10.7197 20.483C10.7197 26.3032 15.4549 31.0382 21.2754 31.0382C27.096 31.0382 31.8312 26.3032 31.8312 20.483C31.8312 14.6625 27.096 9.92725 21.2754 9.92725ZM21.2754 27.4033C17.4593 27.4033 14.3544 24.2988 14.3544 20.4827C14.3544 16.6663 17.4591 13.5616 21.2754 13.5616C25.0918 13.5616 28.1965 16.6663 28.1965 20.4827C28.1965 24.2988 25.0916 27.4033 21.2754 27.4033Z" fill="white"/>
<path d="M32.2738 6.8457C31.5735 6.8457 30.8856 7.12921 30.3911 7.62594C29.8941 8.12025 29.6084 8.80841 29.6084 9.5111C29.6084 10.2116 29.8943 10.8995 30.3911 11.3963C30.8854 11.8906 31.5735 12.1765 32.2738 12.1765C32.9765 12.1765 33.6622 11.8906 34.159 11.3963C34.6557 10.8995 34.9392 10.2114 34.9392 9.5111C34.9392 8.80841 34.6557 8.12025 34.159 7.62594C33.6647 7.12921 32.9765 6.8457 32.2738 6.8457Z" fill="white"/>
</svg>
