<svg width="41" height="24" viewBox="0 0 41 24" fill="none" xmlns="http://www.w3.org/2000/svg">
<path d="M39.9638 21.3146C39.916 21.2117 39.8715 21.1263 39.8301 21.0578C39.1457 19.8252 37.8377 18.3122 35.9071 16.5184L35.8663 16.4773L35.8459 16.4571L35.8253 16.4365H35.8045C34.9283 15.6012 34.3735 15.0396 34.1411 14.752C33.7159 14.2043 33.6207 13.6499 33.8531 13.0881C34.0172 12.6637 34.6339 11.7673 35.7016 10.3978C36.2632 9.672 36.708 9.0903 37.0365 8.65205C39.4055 5.50257 40.4326 3.49 40.1175 2.61357L39.9951 2.40876C39.9129 2.28546 39.7007 2.17266 39.3588 2.06978C39.016 1.96713 38.578 1.95015 38.0439 2.01856L32.1287 2.05942C32.0329 2.02547 31.8961 2.02863 31.7178 2.06978C31.5398 2.11093 31.4507 2.13158 31.4507 2.13158L31.3478 2.18302L31.2661 2.24481C31.1976 2.28567 31.1223 2.35754 31.04 2.46027C30.9582 2.56264 30.8898 2.68278 30.8351 2.81967C30.1911 4.4765 29.459 6.01693 28.6372 7.44089C28.1305 8.28998 27.6652 9.02585 27.2403 9.64891C26.8159 10.2718 26.4599 10.7307 26.1726 11.0248C25.8848 11.3193 25.6251 11.5551 25.3919 11.7333C25.159 11.9116 24.9813 11.9869 24.8582 11.9594C24.7348 11.9318 24.6186 11.9045 24.5086 11.8771C24.317 11.7538 24.163 11.5862 24.0468 11.3739C23.9301 11.1617 23.8515 10.8946 23.8105 10.5728C23.7696 10.2508 23.7454 9.97386 23.7385 9.74099C23.7321 9.50841 23.7351 9.17944 23.7489 8.755C23.7632 8.33034 23.7696 8.04302 23.7696 7.89238C23.7696 7.37197 23.7797 6.80718 23.8001 6.19786C23.8208 5.58853 23.8376 5.10575 23.8516 4.75008C23.8656 4.39406 23.872 4.01739 23.872 3.62028C23.872 3.22318 23.8479 2.91176 23.8001 2.68572C23.7529 2.45998 23.6805 2.24085 23.585 2.02842C23.489 1.8162 23.3484 1.65203 23.1639 1.53549C22.9791 1.4191 22.7494 1.32673 22.4759 1.2581C21.7501 1.09386 20.8259 1.00502 19.7029 0.991204C17.1562 0.963867 15.5198 1.12832 14.7941 1.48434C14.5065 1.63477 14.2463 1.8403 14.0137 2.10029C13.7671 2.40164 13.7327 2.56609 13.9107 2.59314C14.7324 2.71623 15.3141 3.01067 15.6565 3.47619L15.7798 3.72287C15.8758 3.90085 15.9716 4.21594 16.0675 4.66771C16.1633 5.11949 16.2251 5.61925 16.2523 6.16671C16.3206 7.16644 16.3206 8.02223 16.2523 8.73414C16.1837 9.44633 16.119 10.0008 16.0572 10.3979C15.9954 10.795 15.903 11.1168 15.7798 11.3631C15.6565 11.6096 15.5744 11.7602 15.5332 11.8149C15.4922 11.8696 15.4579 11.9041 15.4307 11.9176C15.2527 11.9858 15.0676 12.0205 14.8761 12.0205C14.6842 12.0205 14.4516 11.9246 14.1778 11.7328C13.904 11.541 13.6199 11.2775 13.3255 10.942C13.0311 10.6064 12.699 10.1374 12.3291 9.53503C11.9596 8.93261 11.5762 8.22064 11.1791 7.39909L10.8505 6.80329C10.6451 6.42 10.3646 5.8619 10.0085 5.12949C9.6523 4.39679 9.33742 3.68805 9.0637 3.00341C8.95428 2.71587 8.7899 2.49696 8.57084 2.34632L8.46804 2.28452C8.3997 2.22985 8.28999 2.17179 8.1395 2.10993C7.98878 2.04813 7.83153 2.00382 7.66707 1.97655L2.03936 2.01741C1.46429 2.01741 1.07409 2.14769 0.868631 2.4079L0.786405 2.53098C0.745328 2.59954 0.724609 2.70903 0.724609 2.85975C0.724609 3.01039 0.765686 3.19527 0.847913 3.41418C1.66945 5.34502 2.56286 7.20716 3.52814 9.00088C4.49342 10.7946 5.33222 12.2395 6.04406 13.3343C6.75604 14.4298 7.48176 15.4638 8.22122 16.4357C8.96068 17.408 9.45015 18.031 9.68964 18.3047C9.92941 18.579 10.1177 18.784 10.2546 18.9209L10.7682 19.4138C11.0968 19.7424 11.5794 20.1361 12.2161 20.5947C12.853 21.0536 13.5581 21.5054 14.3317 21.9508C15.1055 22.3954 16.0057 22.7583 17.0327 23.0389C18.0597 23.3198 19.0592 23.4326 20.0314 23.3782H22.3935C22.8725 23.3368 23.2354 23.1862 23.4821 22.9262L23.5638 22.8232C23.6188 22.7415 23.6702 22.6145 23.7177 22.4437C23.7658 22.2725 23.7897 22.084 23.7897 21.8789C23.7756 21.2902 23.8205 20.7597 23.9229 20.2873C24.0253 19.8151 24.1419 19.4591 24.2724 19.2193C24.4029 18.9797 24.5501 18.7776 24.7139 18.6137C24.878 18.4495 24.995 18.35 25.0636 18.3158C25.1318 18.2813 25.1863 18.2579 25.2274 18.2439C25.556 18.1344 25.9427 18.2404 26.3882 18.5625C26.8333 18.8843 27.2507 19.2816 27.6412 19.7538C28.0315 20.2264 28.5004 20.7567 29.048 21.3454C29.5959 21.9343 30.075 22.372 30.4857 22.66L30.8963 22.9065C31.1705 23.0709 31.5265 23.2216 31.9648 23.3585C32.4023 23.4953 32.7855 23.5295 33.1147 23.4611L38.3725 23.3791C38.8925 23.3791 39.2972 23.293 39.5842 23.1221C39.8718 22.951 40.0427 22.7624 40.0978 22.5573C40.1527 22.352 40.1557 22.1191 40.1082 21.8587C40.0595 21.5989 40.0115 21.4173 39.9638 21.3146Z" fill="white"/>
</svg>
