<svg width="44" height="32" viewBox="0 0 44 32" fill="none" xmlns="http://www.w3.org/2000/svg">
<path d="M36.3199 0.128418H7.68032C3.44532 0.128418 0 3.57479 0 7.81084V24.1897C0 28.4257 3.44532 31.8719 7.68032 31.8719H36.3201C40.5549 31.8719 44.0002 28.4257 44.0002 24.1897V7.81084C44 3.57479 40.5546 0.128418 36.3199 0.128418ZM40.8522 24.1895C40.8522 26.6898 38.819 28.7239 36.3199 28.7239H7.68032C5.181 28.7239 3.14776 26.6898 3.14776 24.1895V7.81063C3.14776 5.31026 5.181 3.27618 7.68032 3.27618H36.3201C38.8192 3.27618 40.8524 5.31026 40.8524 7.81063V24.1895H40.8522Z" fill="white"/>
<path d="M30.4488 14.6852L18.7819 6.9942C18.2987 6.67544 17.6794 6.64816 17.1694 6.92243C16.6597 7.19691 16.3418 7.7293 16.3418 8.30828V23.6922C16.3418 24.2712 16.6597 24.8034 17.1694 25.0781C17.403 25.204 17.6597 25.2661 17.9155 25.2661C18.2181 25.2661 18.52 25.179 18.7819 25.0061L30.4488 17.3132C30.8905 17.0219 31.1564 16.5283 31.1564 15.9991C31.1564 15.4701 30.8905 14.9765 30.4488 14.6852ZM19.4896 20.7692V11.2309L26.7233 15.9993L19.4896 20.7692Z" fill="white"/>
</svg>
