<?xml version="1.0" encoding="utf-8"?>
<!-- Generator: Adobe Illustrator 24.0.1, SVG Export Plug-In . SVG Version: 6.00 Build 0)  -->
<svg version="1.1" id="Слой_1" xmlns="http://www.w3.org/2000/svg" xmlns:xlink="http://www.w3.org/1999/xlink" x="0px" y="0px"
	 viewBox="0 0 575 620.2" style="enable-background:new 0 0 575 620.2;" xml:space="preserve">
<style type="text/css">
	.st0{fill:#02C9F8;}
	.st1{fill:#FFFFFF;}
</style>
<g>
</g>
<g>
</g>
<g>
</g>
<g>
	<path id="controller_1_" class="st0" d="M245.9,37.7h10.5c0.6,0,1-0.4,1-1V1c0-0.6-0.4-1-1-1h-87.3c-0.6,0-1,0.4-1,1v35.8
		c0,0.6,0.4,1,1,1h10.3l4.9,3.5v6.9l-4.9,3.5h-10.3c-0.6,0-1,0.4-1,1v35.8c0,0.6,0.4,1,1,1h87.3c0.6,0,1-0.4,1-1v-36
		c0-0.6-0.4-1-1-1h-10.5L241,48v-6.9L245.9,37.7z M255.4,2v8.6h-85.3V2C170.1,2,255.4,2,255.4,2z M250.1,19c0,1.4-1.2,2.6-2.6,2.6
		c-1.4,0-2.7-1.1-2.7-2.6s1.1-2.6,2.6-2.6C248.9,16.4,250.1,17.6,250.1,19z M242.4,19c0,1.4-1.1,2.6-2.6,2.6s-2.6-1.1-2.6-2.6
		s1.1-2.6,2.6-2.6S242.4,17.6,242.4,19z M234.6,19c0,1.4-1.1,2.6-2.6,2.6c-1.4,0-2.6-1.1-2.6-2.6s1.1-2.6,2.6-2.6
		S234.6,17.6,234.6,19z M226.9,19c0,1.4-1.1,2.6-2.6,2.6s-2.6-1.1-2.6-2.6s1.1-2.6,2.6-2.6S226.9,17.6,226.9,19z M219.1,19
		c0,1.4-1.2,2.6-2.6,2.6c-1.4,0-2.6-1.1-2.6-2.6s1.1-2.6,2.6-2.6S219.1,17.6,219.1,19z M211.4,19c0,1.4-1.1,2.6-2.6,2.6
		s-2.6-1.1-2.6-2.6s1.1-2.6,2.6-2.6S211.4,17.6,211.4,19z M203.8,19c0,1.4-1.1,2.6-2.6,2.6s-2.6-1.1-2.6-2.6s1.1-2.6,2.6-2.6
		S203.8,17.6,203.8,19z M196.1,19c0,1.4-1.1,2.6-2.6,2.6s-2.6-1.1-2.6-2.6s1.1-2.6,2.6-2.6S196.1,17.6,196.1,19z M188.4,19
		c0,1.4-1.2,2.6-2.6,2.6s-2.6-1.1-2.6-2.6s1.1-2.6,2.6-2.6S188.4,17.6,188.4,19z M180.6,19c0,1.4-1.1,2.6-2.6,2.6
		c-1.4,0-2.6-1.1-2.6-2.6s1.1-2.6,2.6-2.6C179.4,16.4,180.6,17.6,180.6,19z M239.4,49.3l5.6,4c0.2,0.1,0.4,0.2,0.6,0.2h9.8v33.8
		h-85.3V53.4h9.7c0.2,0,0.4-0.1,0.6-0.2l5.6-4c0.3-0.2,0.4-0.5,0.4-0.8v-7.9c0-0.3-0.2-0.6-0.4-0.8l-5.6-4c-0.2,0-0.4-0.1-0.7-0.1
		H170v-8.3h85.3v8.3h-9.8c-0.2,0-0.4,0.1-0.6,0.2l-5.6,4c-0.3,0.2-0.4,0.5-0.4,0.8v7.9C239.1,48.8,239.1,49.1,239.4,49.3z
		 M189.4,79.9c-5.9,0-10.6-4.8-10.6-10.6c0-5.9,4.8-10.6,10.6-10.6c5.9,0,10.6,4.8,10.6,10.6C200.1,75.1,195.3,79.9,189.4,79.9z
		 M189.4,60.6c-4.8,0-8.6,3.9-8.6,8.6c0,4.8,3.9,8.6,8.6,8.6c4.8,0,8.6-3.9,8.6-8.6C198.1,64.5,194.1,60.6,189.4,60.6z M203.8,32.5
		h-9.4v9.4h9.4V32.5z M245.6,74.3h-34.4v6h34.4V74.3z M232.9,57.5v-1.6h-4.7v-1.5h4.7v-1.6h-4.7v-1.6h4.7v-1.6h-4.7V48h4.7v-1.6
		h-4.7v-1.7c0-0.6-0.4-1-1-1h-1.8v-4.8h-1.7v4.8h-1.6v-4.8h-1.6v4.8h-1.4v-4.8h-1.6v4.8h-1.6v-4.8h-1.7v4.8h-1.6v-4.8H211v4.8h-1.8
		c-0.6,0-1,0.4-1,1v1.8h-4.8v1.6h4.8v1.6h-4.8v1.6h4.8v1.6h-4.8v1.6h4.8v1.6h-4.8v1.6h4.8v1.6h-4.8v1.6h4.8v1.8c0,0.6,0.4,1,1,1h1.8
		v4.7h1.7v-4.7h1.6v4.7h1.6v-4.7h1.6v4.7h1.6v-4.7h1.6v4.7h1.6v-4.7h1.6v4.7h1.6v-4.7h1.8c0.6,0,1-0.4,1-1v-1.8h4.7v-1.6h-4.7v-1.6
		L232.9,57.5L232.9,57.5z M226.3,61.5h-15.8V45.7h15.8V61.5z"/>
</g>
<g>
	<path id="bp_1_" class="st0" d="M119.9,209.2H1c-0.6,0-1-0.4-1-1V51c0-0.6,0.4-1,1-1h119c0.6,0,1,0.4,1,1v157.3
		C120.9,208.8,120.4,209.2,119.9,209.2z M2,207.2h117V52H2V207.2z M33.1,104.3H13c-0.6,0-1-0.4-1-1V65.7c0-0.6,0.4-1,1-1h20
		c0.6,0,1,0.4,1,1v37.6C34.1,103.9,33.7,104.3,33.1,104.3z M14,102.3h18V66.7H14V102.3z M29.4,68.4H16.8v29.9h12.5L29.4,68.4
		L29.4,68.4z M60.5,61.3c1.1,0,1.9-0.9,1.9-1.9s-0.9-1.9-1.9-1.9s-1.9,0.9-1.9,1.9C58.5,60.4,59.5,61.3,60.5,61.3z M60.5,201.7
		c1.1,0,1.9-0.9,1.9-1.9c0-1.1-0.9-1.9-1.9-1.9s-1.9,0.9-1.9,1.9C58.5,200.9,59.5,201.7,60.5,201.7z"/>
</g>
<g>
	<g>
		<path class="st0" d="M238.9,214.3c-0.9,0-1.7,0.8-1.7,1.7s0.8,1.7,1.7,1.7s1.7-0.8,1.7-1.7C240.6,215,239.8,214.3,238.9,214.3z
			 M238.9,217c-0.6,0-0.9-0.4-0.9-1s0.4-1,0.9-1s1,0.4,1,1C239.9,216.5,239.5,217,238.9,217z"/>
		<rect x="249.7" y="214.4" class="st0" width="8.5" height="3"/>
		<path class="st0" d="M258.5,211.8h-21.9c-1.2,0-2.2,1-2.2,2.2v28.5c0,1.2,1,2.2,2.2,2.2h21.9c1.2,0,2.2-1,2.2-2.2V214
			C260.7,212.8,259.7,211.8,258.5,211.8z M259.7,242.6c0,0.7-0.5,1.2-1.2,1.2h-21.9c-0.7,0-1.2-0.5-1.2-1.2v-28.5
			c0-0.7,0.5-1.2,1.2-1.2h21.9c0.7,0,1.2,0.5,1.2,1.2V242.6z"/>
		<path class="st0" d="M261.2,204.5H234c-1.2,0-2.2,1-2.2,2.2v43.1c0,1.2,1,2.2,2.2,2.2h27.2c1.2,0,2.2-1,2.2-2.2v-43.1
			C263.4,205.5,262.4,204.5,261.2,204.5z M262.4,249.9c0,0.7-0.5,1.2-1.2,1.2H234c-0.7,0-1.2-0.5-1.2-1.2v-43.1
			c0-0.7,0.5-1.2,1.2-1.2h27.2c0.7,0,1.2,0.5,1.2,1.2L262.4,249.9L262.4,249.9z"/>
	</g>
</g>
<g>
	<path id="key_1_" class="st1" d="M258.9,273.1h-22c-0.9,0-1.7,0.8-1.7,1.7v22c0,0.5,0.2,0.9,0.5,1.2c0.3,0.3,0.7,0.5,1.2,0.5l0,0
		h22c0.9,0,1.7-0.8,1.7-1.7v-22C260.5,273.8,259.8,273.1,258.9,273.1z M257.3,292.9c0-0.1,0.1-0.3,0.1-0.4V279c0-0.1,0-0.2-0.1-0.4
		l2.3-3.6v21.5L257.3,292.9z M236.1,296.6V275l2.3,3.6c-0.1,0.1-0.1,0.3-0.1,0.4v13.5c0,0.2,0,0.3,0.1,0.4L236.1,296.6z
		 M239.4,292.6C239.4,292.6,239.3,292.6,239.4,292.6V279c0,0,0-0.1,0.1-0.1h16.8c0,0,0.1,0,0.1,0.1v13.5c0,0,0,0.1-0.1,0.1H239.4z
		 M258.9,274.1h0.1l-2.4,3.9c-0.1,0-0.2-0.1-0.3-0.1h-16.8c-0.1,0-0.1,0-0.2,0l-2.4-3.9c0,0,0,0,0.1,0L258.9,274.1L258.9,274.1z
		 M236.8,297.5C236.8,297.5,236.8,297.4,236.8,297.5l2.4-3.9c0.1,0,0.1,0,0.2,0l0,0h16.8c0.1,0,0.2,0,0.2,0l2.4,3.9h-0.1H236.8z
		 M252.2,285.1h-5.1c-0.3-1.2-1.2-2-2.3-2c-1.3,0-2.4,1.3-2.4,2.9s1.1,2.9,2.4,2.9c1.1,0,2-0.8,2.3-2h3.1v0.9c0,0.5,0.4,0.9,0.9,0.9
		s0.9-0.4,0.9-0.9v-0.9h0.2c0.5,0,0.9-0.4,0.9-0.9S252.8,285.1,252.2,285.1z M244.9,287.1c-0.2,0-0.6-0.4-0.6-1.1s0.4-1.1,0.6-1.1
		s0.6,0.4,0.6,1.1S245.1,287.1,244.9,287.1z"/>
</g>
<g>
	<path class="st0" d="M574,25.2H283c-0.6,0-1,0.4-1,1v592.7c0,0.6,0.4,1,1,1h291c0.6,0,1-0.5,1-1V26.2C575,25.6,574.6,25.2,574,25.2
		z M551.1,134.4h4.9v3.8l0,0c0,0.3-0.3,0.6-0.6,0.6h-3.7c-0.3,0-0.6-0.3-0.6-0.6C551.1,138.2,551.1,134.4,551.1,134.4z M551.1,132.4
		v-13.6h4.9v13.6H551.1z M556,116.8h-4.9V113c0-0.3,0.3-0.6,0.6-0.6h3.7c0.1,0,0.3,0.1,0.4,0.2c0.1,0.1,0.2,0.2,0.2,0.4V116.8z
		 M552.5,110.4h-0.9c-1.4,0-2.6,1.2-2.6,2.6v4.8v15.6v4.8c0,1.4,1.2,2.6,2.6,2.6h0.9v378.3h-0.9c-1.4,0-2.6,1.2-2.6,2.6v4.8v15.6
		v4.8c0,1.4,1.2,2.6,2.6,2.6h0.9v68.4h-248V47.8h248V110.4z M551.1,541.2v-13.6h4.9v13.6H551.1z M556,543.2v3.8
		c0,0.2-0.1,0.3-0.2,0.4c-0.1,0.1-0.3,0.2-0.4,0.2h-3.7c-0.3,0-0.6-0.3-0.6-0.6v-3.8L556,543.2L556,543.2z M551.1,525.5v-3.8
		c0-0.3,0.3-0.6,0.6-0.6h3.7c0.3,0,0.6,0.3,0.6,0.6v3.8H551.1z M573,618h-18.4v-68.4h0.8c0.7,0,1.4-0.3,1.9-0.8s0.7-1.1,0.7-1.8
		v-4.7v-0.1v-15.6v-0.1v-4.7c0-1.4-1.2-2.6-2.6-2.6h-0.8V140.8h0.8c1.4,0,2.6-1.2,2.6-2.6v-4.7v-0.1v-15.6v-0.1V113
		c0-0.7-0.2-1.3-0.7-1.8s-1.2-0.8-1.9-0.8h-0.8V46.8c0-0.6-0.4-1-1-1h-250c-0.6,0-1,0.4-1,1v571.1H284V27.2h289V618z M327.4,343.5
		c3.4,0,6.6-2,8-5.1h25.8c0.6,0,1-0.4,1-1v-5.6c0-0.6-0.5-1-1-1h-25.8c-1.5-3.1-4.6-5.1-8-5.1c-4.9,0-8.9,4-8.9,8.9
		S322.5,343.5,327.4,343.5z M360.2,332.8v3.6H328c-1,0-1.8-0.8-1.8-1.8s0.8-1.8,1.8-1.8C328,332.8,360.2,332.8,360.2,332.8z
		 M327.4,327.8c2.3,0,4.5,1.2,5.7,3.1h-5.2c-2.1,0-3.8,1.7-3.8,3.8s1.7,3.8,3.8,3.8h5.2c-1.2,1.8-3.4,3.1-5.7,3.1
		c-3.8,0-6.9-3.1-6.9-6.9S323.6,327.8,327.4,327.8z"/>
</g>
<g>
	<path id="lock_1_" class="st0" d="M373,47h-69c-0.6,0-1,0.4-1,1v19c0,0.6,0.4,1,1,1h69c0.6,0,1-0.4,1-1V48
		C374,47.4,373.6,47,373,47z M324.3,53.5h39.6v5h-39.6V53.5z M324.3,60.3h39.6v2.8h-39.6V60.3z M324.3,51.6V49h39.6v2.6H324.3z
		 M305,49h15.4v14.5H305V49z M372,66h-67v-1.5h67V66z M372,63.5h-4.2V49h4.2V63.5z"/>
</g>
<g>
	<path class="st0" d="M456.7,59.6c-0.6,0-1.1-0.5-1.2-1.2c0-0.7,0.5-1.2,1.2-1.2s1.2,0.6,1.2,1.2C457.9,59.1,457.3,59.6,456.7,59.6z
		 M512,59.4c0.5,0,0.9-0.4,0.9-0.9s-0.4-0.9-0.9-0.9s-0.9,0.4-0.9,0.9S511.5,59.4,512,59.4z M525.3,58.5c0,0.9-0.8,1.6-1.6,1.6H521
		c-0.9,0-1.6-0.7-1.6-1.6c0-0.9,0.7-1.6,1.6-1.6h2.7C524.6,56.9,525.3,57.6,525.3,58.5z M524.3,58.5c0-0.3-0.3-0.6-0.6-0.6H521
		c-0.3,0-0.6,0.3-0.6,0.6s0.3,0.6,0.6,0.6h2.7C524,59.1,524.3,58.8,524.3,58.5z M534.2,33.4v3.4v6.8V47c0,0.3-0.2,0.5-0.5,0.5h-21.1
		v0.4h2.9c0.3,0,0.5,0.2,0.5,0.5v1.5c0,0.3-0.2,0.5-0.5,0.5h-7.6l-1.9,4.7c0,0.2-0.1,0.3-0.4,0.3h-54.8c0,0.1,0,0.1,0,0.2
		s0,0.2-0.1,0.3h0.2h2.6c0.1-0.2,0.3-0.4,0.5-0.4h5h0.1l2.4,0.7h24.9c0.1,0,0.2,0,0.2,0l1.2,0.5h5.1c0.3,0,0.5,0.2,0.5,0.4h8.5
		c0-0.2,0.2-0.4,0.5-0.4h1.1c0.3,0,0.5,0.2,0.5,0.4h1.4h1.5v-1.2c0-0.3,0.2-0.5,0.5-0.5h18.9c0.2,0,0.5,0.3,0.5,0.5V61
		c0,0.3-0.2,0.5-0.5,0.5h-18.9c-0.3,0-0.5-0.2-0.5-0.5v-1.1h-1.5H504c0,0.2-0.2,0.4-0.5,0.4h-1.1c-0.2,0-0.3-0.1-0.4-0.2h-8.7
		c0,0.2-0.2,0.4-0.5,0.4h-5.1l-1.2,0.5c-0.1,0-0.1,0-0.2,0h-24.9l-2.4,0.7h-0.1h-5c-0.3,0-0.4-0.2-0.5-0.4H452v0.5
		c0,0.3-0.2,0.5-0.5,0.5h-1.2v0.8h-3.9v-0.8h-1.5c-0.3,0-0.5-0.2-0.5-0.5v-1c0-0.3,0.2-0.5,0.5-0.5h0.2v-3.9c0-0.3,0.2-0.5,0.5-0.5
		h0.4c0-0.1-0.1-0.2-0.1-0.3s0-0.1,0-0.2H445c-0.3,0-0.5-0.2-0.5-0.5v-1.5c0-0.3,0.2-0.5,0.5-0.5h59.2l1.9-4.7
		c0.1-0.2,0.3-0.3,0.5-0.3h3.1v-0.4h-12.5c-0.3,0-0.5-0.2-0.5-0.5v-3.4v-6.8v-3.4c0-0.3,0.2-0.5,0.5-0.5h13.3v-1
		c0-0.3,0.2-0.5,0.5-0.5h1.6h1.4V31h-3.9c-0.3,0-0.5-0.2-0.5-0.5v-1.6c0-0.1,0-0.1,0-0.1c0-0.1,0.1-0.1,0.1-0.2l3.1-3.9
		c0.1-0.1,0.2-0.2,0.4-0.2h4.5c0.2,0,0.3,0.1,0.4,0.2l3.1,3.9c0.1,0,0.1,0.1,0.1,0.2v1.7c0,0.3-0.2,0.5-0.5,0.5h-3.9v0.4h1.4h1.6
		c0.3,0,0.5,0.2,0.5,0.5v1h13.3C534,32.9,534.2,33.1,534.2,33.4z M511.1,28.4h8.7l-2.3-2.9h-4.1L511.1,28.4z M510.6,30h9.7v-0.7
		h-9.7L510.6,30L510.6,30z M509.6,58.4c0-0.3,0.1-0.6,0.2-0.9h-0.4c-0.5,0-1,0.1-1.5,0.3V59c0.5,0.2,1,0.3,1.5,0.3h0.4
		C509.7,59,509.6,58.7,509.6,58.4z M510.7,60.4c-0.1,0-0.2-0.1-0.3-0.2h-1c-0.5,0-1,0-1.5-0.2v0.4C507.9,60.4,510.7,60.4,510.7,60.4
		z M518.9,60.5h6.9v-4h-6.9v0.1V60.5L518.9,60.5z M515.8,59.9h2.1v-2.8h-2.1V59.9z M510.6,58.5c0,0.7,0.6,1.4,1.4,1.4h2.8v-2.8H512
		C511.2,57.1,510.6,57.7,510.6,58.5z M507.8,56.9c0.5-0.1,1-0.2,1.5-0.2h1.1c0.1-0.1,0.2-0.1,0.3-0.2h-2.9V56.9z M505.9,58.9h1v-0.8
		h-1V58.9z M504.7,58.9h0.2v-0.8h-0.2V58.9z M504,58.9h0.2v-0.8H504V58.9z M502.8,58h0.2v-0.3h-0.2V58z M502.8,59.3h0.2V59h-0.2
		V59.3z M501.7,58.9h0.2v-0.4v-0.4h-0.2V58.9z M500.8,58.9h0.4v-0.8h-0.4V58.9z M499.8,58.9h0.4v-0.8h-0.4V58.9z M498.9,58.9h0.4
		v-0.8h-0.4V58.9z M497.9,58.9h0.4v-0.8h-0.4V58.9z M497,58.9h0.4v-0.8H497V58.9z M496,58.9h0.4v-0.8H496V58.9z M495.1,58.9h0.4
		v-0.8h-0.4V58.9z M494.2,58.9h0.4v-0.8h-0.4V58.9z M493.4,58.9h0.2v-0.8h-0.2V58.9z M488.3,59.3h4.2v-1.7h-4.2V59.3z M487,59.6
		l0.3-0.1v-2.1l-0.3-0.1V59.6z M460.4,60.1l-1-0.8c-0.1,0.5-0.4,0.9-0.8,1.2h0.4L460.4,60.1z M459.8,58.4l1.7,1.4h24.4V57h-24.4
		L459.8,58.4z M458.6,56.4c0.3,0.3,0.6,0.7,0.8,1.2l1-0.8l-1.4-0.4H458.6z M454.6,60.2h2.3c0.9,0,1.7-0.8,1.7-1.7s-0.8-1.7-1.7-1.7
		h-2.3V60.2z M451.6,60.2h0.1h1.9v-3.4h-2V60.2z M450.6,56.8h-4.4v3.4h4.4V56.8z M515.1,48.9H507l-1.9,4.7c-0.1,0.2-0.3,0.3-0.5,0.3
		h-59.1v0.5h59.8l1.9-4.7c0.1-0.2,0.3-0.3,0.5-0.3h7.4V48.9z M518.8,32.9h0.6v-0.5h-0.6V32.9z M513.1,32.9h4.7v-0.5h-4.7V32.9z
		 M511.5,32.9h0.6v-0.5h-0.6L511.5,32.9L511.5,32.9z M533.2,44.1h-35.5v2.4h35.5V44.1z M533.2,37.3h-35.5l0,0v5.8h35.5V37.3z
		 M533.2,33.9h-13.3h-1.6h-5.7H511h-13.3l0,0v2.4h35.5V33.9z"/>
</g>
<g>
	<path class="st0" d="M181,169.8h-1.7v-1h0.7v-1.1h1V169.8z M176.5,169.8h-2.8v-1h2.8V169.8z M170.8,169.8H168v-1h2.8V169.8z
		 M165.2,169.8h-2.8v-1h2.8V169.8z M159.5,169.8h-2.8v-1h2.8V169.8z M153.8,169.8H151v-1h2.8V169.8z M148.2,169.8h-2.8v-1h2.8V169.8
		z M142.5,169.8h-2.8v-1h2.8V169.8z M136.9,169.8h-2.8v-1h2.8V169.8z M131.2,169.8h-2.8v-1h2.8V169.8z M125.5,169.8h-2.8v-1h2.8
		V169.8z M181,164.9h-1v-2.8h1V164.9z M181,159.2h-1v-2.8h1V159.2z M181,153.6h-1v-2.8h1V153.6z M181,147.9h-1v-2.8h1V147.9z
		 M181,142.2h-1v-2.8h1V142.2z M181,136.6h-1v-2.8h1V136.6z M181,130.9h-1v-2.8h1V130.9z M181,125.3h-1v-2.8h1V125.3z M181,119.6h-1
		v-2.8h1V119.6z M181,113.9h-1v-2.8h1V113.9z M181,108.3h-1v-2.8h1V108.3z M181,102.6h-1v-2.8h1V102.6z M181,97h-1v-2.8h1V97z
		 M247.5,202.9h-1v-2.8h1V202.9z M247.5,197.3h-1v-2.8h1V197.3z M247.5,191.6h-1v-2.8h1V191.6z M247.5,185.9h-1v-2.8h1V185.9z
		 M247.5,180.3h-1v-2.8h1V180.3z M247.5,174.6h-1v-2.8h1V174.6z M247.5,169h-1v-2.8h1V169z M247.5,163.3h-1v-2.8h1V163.3z
		 M247.5,157.6h-1v-2.8h1V157.6z M247.5,152h-1v-2.8h1V152z M247.5,146.3h-1v-2.8h1V146.3z M247.5,140.7h-1v-2.8h1V140.7z
		 M247.5,135h-1v-2.8h1V135z M247.5,129.3h-1v-2.8h1V129.3z M247.5,123.7h-1v-2.8h1V123.7z M247.5,118h-1v-2.8h1V118z M247.5,112.4
		h-1v-2.8h1V112.4z M247.5,106.7h-1v-2.8h1V106.7z M247.5,101h-1v-2.8h1V101z M247.5,95.4h-1v-2.8h1V95.4z M282.3,59.9h-2.8v-1h2.8
		V59.9z M276.6,59.9h-2.8v-1h2.8V59.9z M271,59.9h-2.8v-1h2.8V59.9z M265.3,59.9h-2.8v-1h2.8V59.9z M259.6,59.9h-2.2v-1h2.2V59.9z"
		/>
</g>
</svg>
