<svg width="161" height="34" viewBox="0 0 161 34" fill="none" xmlns="http://www.w3.org/2000/svg">
<path d="M81.3525 15.1841C81.2032 15.9864 80.97 16.6114 80.6529 17.0498C80.0652 17.9174 79.2069 18.3279 78.1155 18.3279C77.024 18.3279 76.2124 17.8708 75.5781 17.0498C74.9437 16.1823 74.6732 14.8203 74.6732 12.9079C74.6732 10.9489 74.9904 9.58693 75.5781 8.71936C76.2124 7.89844 77.024 7.44133 78.0688 7.44133C79.1603 7.44133 79.9719 7.89844 80.6062 8.71936C80.9514 9.16714 81.1939 9.76417 81.3525 10.4918H86.5206C86.2314 8.45816 85.5317 6.82564 84.4496 5.5756C82.957 3.84047 80.8301 2.98224 78.0688 2.98224C75.4008 2.98224 73.3112 3.8498 71.8186 5.62225C70.326 7.35738 69.5518 9.76417 69.5518 12.8613C69.5518 15.0908 69.9156 16.9566 70.6899 18.4118C71.4641 19.9137 72.453 21.0052 73.6844 21.6862C74.9064 22.3672 76.4456 22.6844 78.302 22.6844C80.1118 22.6844 81.6604 22.3205 82.8824 21.4996C84.1045 20.7253 85.056 19.5872 85.6903 18.1786C86.1008 17.3297 86.362 16.3222 86.5112 15.1748H81.3525V15.1841Z" fill="white"/>
<path d="M40.298 10.0967H43.0219C45.5593 10.0967 47.3691 10.6005 48.5912 11.636C49.8132 12.6341 50.4009 14.22 50.4009 16.3469C50.4009 18.1194 49.8505 19.4347 48.7684 20.3862C47.6303 21.2911 46.0444 21.7482 43.9641 21.7482H35.2139V2.79241H49.1229V6.5985H40.2887V10.0967H40.298ZM40.298 17.6716H42.9287C44.5145 17.6716 45.3355 17.0373 45.3355 15.6753C45.3355 14.5372 44.5239 13.9495 42.9287 13.9495H40.298V17.6716ZM63.3211 18.6231H57.472L56.6978 21.7482H51.4924L57.6959 2.79241H63.2278L69.4873 21.7482H64.1327L63.3211 18.6231ZM62.2296 14.5372L60.4199 7.68995L58.6101 14.5372H62.2296ZM88.6484 2.79241H104.19V7.46606H98.9845V21.7482H93.8631V7.46606H88.6577V2.79241H88.6484ZM122.315 2.79241V21.7482H117.511V11.3188L111.308 21.7482H106.503V2.79241H111.308V13.2685L117.558 2.79241H122.315ZM125.077 12.2703C125.077 9.18253 125.851 6.78507 127.344 5.05927C128.836 3.28683 130.926 2.42859 133.594 2.42859C136.355 2.42859 138.491 3.28682 139.984 5.01263C141.43 6.69178 142.204 9.05193 142.204 12.1304C142.204 14.3506 141.887 16.1697 141.206 17.569C140.572 18.9776 139.62 20.1064 138.398 20.8807C137.176 21.7016 135.637 22.0561 133.818 22.0561C131.961 22.0561 130.422 21.7389 129.2 21.0579C127.978 20.3769 126.98 19.2948 126.206 17.7929C125.441 16.3563 125.077 14.4905 125.077 12.2703ZM130.208 12.317C130.208 14.22 130.478 15.582 131.112 16.4402C131.747 17.2518 132.558 17.7089 133.65 17.7089C134.741 17.7089 135.599 17.2985 136.187 16.4402C136.775 15.6193 137.092 14.1734 137.092 12.0371C137.092 10.2647 136.775 8.94932 136.141 8.13772C135.506 7.3168 134.695 6.86903 133.603 6.86903C132.558 6.86903 131.747 7.32613 131.112 8.13772C130.525 9.00529 130.208 10.3673 130.208 12.317ZM144.975 2.79241H150.096V9.41575H155.675V2.79241H160.796V21.7482H155.675V14.0801H150.096V21.7482H144.975V2.79241Z" fill="white"/>
<path fill-rule="evenodd" clip-rule="evenodd" d="M7.48829 22.675C10.3895 22.3579 15.0538 19.0928 14.4661 19.2328C15.2311 19.9138 16.2292 19.466 16.6397 19.466C17.3673 19.5126 17.7311 20.5108 18.0856 20.2776C18.5801 20.2309 18.6267 18.9156 18.9439 19.0555C19.5316 20.7813 20.9402 21.8634 23.0205 22.2739C25.6512 22.2739 29.2334 22.2273 30.726 22.2273C32.1346 22.2273 31.9947 18.9622 31.8174 16.0144C31.6402 13.3837 32.1812 10.6131 31.9947 8.35556C31.948 7.58128 31.7708 6.76968 31.9014 6.13534C32.3958 4.18565 32.8995 4.0084 32.5824 3.77519C32.2652 3.5513 31.267 4.09236 29.9983 4.139C28.4964 4.18565 27.4143 3.32741 25.7818 2.87031C24.5597 2.50649 22.9738 2.87031 21.8358 2.4132C18.8413 1.27511 17.7125 -0.310763 15.0818 0.0530541C13.8598 0.230298 13.4959 5.94876 12.9455 8.61676C12.5817 12.3855 14.0836 12.6094 14.0836 13.8781C14.037 14.6524 12.8616 14.3819 12.9455 14.9696C13.4493 15.464 14.1303 16.061 13.8971 16.7793C13.5799 16.826 13.4026 17.507 13.4866 17.6376C12.8989 18.9529 10.9492 21.2198 6.63938 21.7142C5.64121 21.8541 1.07017 20.716 0.0253639 20.035C-0.394425 19.7738 4.49379 22.9922 7.48829 22.675ZM29.4666 9.29775C29.4666 9.25111 29.0095 8.6634 28.9722 8.6634C28.8789 8.6634 28.7856 8.6634 28.7483 8.6634C28.655 8.6634 28.4778 8.75669 28.4778 8.80333C28.2539 9.02722 27.89 9.16715 27.89 9.48432C27.89 9.57761 28.03 9.94143 28.1606 10.072C28.2539 10.1653 28.5151 10.212 28.5617 10.0254C28.6084 9.97874 28.7016 9.8015 28.7856 9.8015C28.9255 9.8015 29.1961 9.66157 29.28 9.66157C29.4199 9.66157 29.5132 9.25111 29.4666 9.29775ZM27.4329 5.93943C27.3863 5.93943 26.8826 5.35173 26.8452 5.35173C26.7519 5.35173 26.668 5.35173 26.6213 5.35173C26.5281 5.35173 26.3975 5.44502 26.3508 5.49166C26.1269 5.71555 25.7631 5.85548 25.7631 6.17265C25.7631 6.26594 25.987 6.62976 26.1269 6.76036C26.2202 6.85364 26.4441 6.90029 26.5374 6.71371C26.584 6.66707 26.6773 6.44318 26.7613 6.44318C26.8546 6.44318 27.1717 6.3499 27.2557 6.3499C27.3863 6.3499 27.4703 5.93943 27.4329 5.93943Z" fill="white"/>
<path d="M23.0303 32.4273H24.0937V26.1025H25.6889V32.4273H26.7524V25.1043H23.0303V32.4273Z" fill="white"/>
<path d="M31.4539 25.1005H29.7188V32.4235H30.7822V29.5502H31.4539C32.7039 29.5502 33.3663 28.8319 33.3663 27.4699V27.1901C33.3663 25.8188 32.7039 25.1005 31.4539 25.1005ZM32.3028 27.2367V27.4046C32.3028 27.8431 32.2282 28.1509 32.0976 28.3189C31.967 28.4774 31.7244 28.5614 31.3793 28.5614H30.7822V26.0893H31.3793C31.7337 26.0893 31.9763 26.1733 32.1069 26.3318C32.2375 26.4998 32.3028 26.8076 32.3028 27.2367Z" fill="white"/>
<path d="M37.6289 25.0445C36.78 25.0445 35.7725 25.427 35.7725 27.2367V30.2965C35.7725 32.1063 36.78 32.4888 37.6289 32.4888C38.4778 32.4888 39.4759 32.1063 39.4759 30.2965V27.2367C39.4759 25.427 38.4778 25.0445 37.6289 25.0445ZM36.8359 27.3114C36.8359 26.6584 36.9479 26.3878 37.0505 26.2759C37.1811 26.1173 37.377 26.0427 37.6289 26.0427C37.8901 26.0427 38.0766 26.1173 38.2166 26.2759C38.3099 26.3878 38.4218 26.6584 38.4218 27.3114V30.2032C38.4218 30.8656 38.3099 31.1361 38.2072 31.2574C38.0766 31.416 37.8807 31.4906 37.6289 31.4906C37.3677 31.4906 37.1811 31.416 37.0505 31.2574C36.9572 31.1454 36.8453 30.8749 36.8453 30.2032V27.3114H36.8359Z" fill="white"/>
<path d="M43.3016 29.7368V25.1005H42.2568V32.4235H43.2177L45.0088 27.7871V32.4235H46.0536V25.1005H45.1021L43.3016 29.7368Z" fill="white"/>
<path d="M52.2105 27.33V26.9662C52.2105 25.7068 51.6041 25.0445 50.4473 25.0445C49.9343 25.0445 49.5238 25.1938 49.216 25.4736C48.9081 25.7628 48.7495 26.2106 48.7495 26.789V27.1621H49.7943V26.8169C49.7943 26.108 50.1488 26.0147 50.4567 26.0147C50.7086 26.0147 50.8765 26.08 50.9884 26.2199C51.1004 26.3598 51.1657 26.621 51.1657 26.9755V27.274C51.1657 28.0856 50.7925 28.1976 50.466 28.1976H49.869V29.1584H50.466C50.7459 29.1584 50.9418 29.2237 51.0444 29.3637C51.1657 29.5129 51.2216 29.7741 51.2216 30.1286V30.3898C51.2216 30.8003 51.1563 31.0895 51.0351 31.2574C50.9231 31.416 50.7179 31.4906 50.438 31.4906C50.0929 31.4906 49.7011 31.388 49.7011 30.6137V30.2872H48.6562V30.6603C48.6562 31.2107 48.8148 31.6585 49.132 31.985C49.4492 32.3208 49.8876 32.4888 50.438 32.4888C51.0351 32.4888 51.4922 32.3208 51.8093 31.9943C52.1265 31.6678 52.2944 31.1361 52.2944 30.4178V30.082C52.2944 29.3823 52.0799 28.8972 51.6601 28.6454C52.0239 28.3842 52.2105 27.9457 52.2105 27.33Z" fill="white"/>
<path d="M57.9566 28.6547C58.1059 28.5521 58.2272 28.4121 58.3204 28.2349C58.479 27.955 58.5537 27.6192 58.5537 27.2274V27.0502C58.5537 26.4065 58.3857 25.9214 58.0592 25.5949C57.7327 25.2684 57.229 25.1005 56.576 25.1005H54.9248V32.4235H56.6226C57.2663 32.4235 57.77 32.2462 58.1152 31.9011C58.4604 31.5559 58.6283 31.0521 58.6283 30.4085V30.2126C58.6283 29.7834 58.535 29.4103 58.3577 29.1025C58.2458 28.9159 58.1152 28.7666 57.9566 28.6547ZM55.9976 28.1976V26.0893H56.5293C56.9025 26.0893 57.1544 26.1639 57.2943 26.3132C57.4342 26.4718 57.4995 26.7516 57.4995 27.1528C57.4995 27.5352 57.4342 27.8058 57.3036 27.9737C57.1823 28.1229 56.9305 28.2069 56.5573 28.2069H55.9976V28.1976ZM57.5835 30.3059C57.5835 30.6977 57.5088 30.9868 57.3689 31.1827C57.229 31.36 56.9678 31.4439 56.576 31.4439H55.9976V29.1771H56.576C56.9678 29.1771 57.2383 29.261 57.3689 29.4383C57.5088 29.6155 57.5835 29.9141 57.5835 30.3059Z" fill="white"/>
<path d="M62.9668 25.0445C62.1178 25.0445 61.1104 25.427 61.1104 27.2367V30.2965C61.1104 32.1063 62.1178 32.4888 62.9668 32.4888C63.8063 32.4888 64.8138 32.1063 64.8138 30.2965V27.2367C64.8231 25.427 63.8157 25.0445 62.9668 25.0445ZM63.7597 30.2032C63.7597 30.8656 63.6477 31.1361 63.5451 31.2574C63.4145 31.416 63.2186 31.4906 62.9668 31.4906C62.7055 31.4906 62.519 31.416 62.3884 31.2574C62.2951 31.1454 62.1831 30.8749 62.1831 30.2032V27.3114C62.1831 26.6584 62.2951 26.3878 62.3977 26.2759C62.5283 26.1173 62.7149 26.0333 62.9668 26.0333C63.228 26.0333 63.4145 26.108 63.5545 26.2665C63.6477 26.3785 63.7597 26.649 63.7597 27.302V30.2032Z" fill="white"/>
<path d="M71.408 25.1005H68.2269V26.1733C68.2269 27.5726 68.1803 28.6454 68.0777 29.3637C67.9844 30.0446 67.7978 30.735 67.5086 31.4253H67.0049V34H68.0217V32.4235H71.0349V34H72.0423V31.4253H71.4173V25.1005H71.408ZM70.3539 26.0986V31.4253H68.6187C68.8706 30.7536 69.0292 30.1659 69.1132 29.6342C69.2064 29.0465 69.2624 28.1136 69.2624 26.8729V26.0893H70.3539V26.0986Z" fill="white"/>
<path d="M75.5504 26.2758C75.6903 26.1172 75.8769 26.0426 76.1288 26.0426C76.3993 26.0426 76.5765 26.1172 76.6791 26.2665C76.7911 26.4437 76.8564 26.7329 76.8657 27.1341L76.875 27.302H77.9478V27.1341C77.9105 25.4176 76.9497 25.0538 76.1381 25.0538C75.6064 25.0538 75.1586 25.2217 74.8134 25.5575C74.4589 25.9027 74.291 26.4531 74.291 27.246V30.3058C74.291 32.1156 75.2985 32.498 76.1381 32.498C76.9497 32.498 77.9199 32.1249 77.9478 30.3524V30.1845H76.8844V30.3524C76.8844 30.8002 76.8098 31.1174 76.6885 31.2853C76.5765 31.4346 76.3993 31.5185 76.1381 31.5185C75.8862 31.5185 75.6996 31.4439 75.569 31.2853C75.4758 31.1734 75.3545 30.8935 75.3545 30.2312V27.3393C75.3452 26.6583 75.4571 26.3878 75.5504 26.2758Z" fill="white"/>
<path d="M80.0371 26.0986H81.3338V32.4235H82.3879V26.0986H83.6846V25.1005H80.0371V26.0986Z" fill="white"/>
<path d="M89.1422 28.6547C89.2914 28.5521 89.4127 28.4121 89.506 28.2349C89.6646 27.955 89.7392 27.6099 89.7392 27.2274V27.0502C89.7392 26.4065 89.5713 25.9214 89.2448 25.5949C88.9183 25.2684 88.4145 25.1005 87.7615 25.1005H86.1104V32.4235H87.8082C88.4518 32.4235 88.9556 32.2462 89.3007 31.9011C89.6459 31.5559 89.8138 31.0521 89.8138 30.4085V30.2126C89.8138 29.7741 89.7205 29.401 89.5433 29.1025C89.4314 28.9159 89.3008 28.7666 89.1422 28.6547ZM87.1831 28.1976V26.0893H87.7149C88.088 26.0893 88.3399 26.1639 88.4798 26.3132C88.6198 26.4718 88.6851 26.7516 88.6851 27.1528C88.6851 27.5259 88.6198 27.8058 88.4892 27.9737C88.3679 28.1229 88.116 28.2069 87.7429 28.2069H87.1831V28.1976ZM88.769 30.3059C88.769 30.6977 88.6944 30.9868 88.5545 31.1827C88.4145 31.36 88.1533 31.4439 87.7615 31.4439H87.1831V29.1771H87.7615C88.1533 29.1771 88.4239 29.261 88.5545 29.4383C88.6944 29.6155 88.769 29.9141 88.769 30.3059Z" fill="white"/>
<path d="M94.1611 25.0445C93.3122 25.0445 92.3047 25.427 92.3047 27.2367V30.2965C92.3047 32.1063 93.3122 32.4888 94.1611 32.4888C95.0007 32.4888 96.0082 32.1063 96.0082 30.2965V27.2367C96.0082 25.427 95.0007 25.0445 94.1611 25.0445ZM94.954 30.2032C94.954 30.8656 94.8421 31.1361 94.7395 31.2574C94.6089 31.416 94.413 31.4906 94.1611 31.4906C93.8999 31.4906 93.7133 31.416 93.5734 31.2574C93.4801 31.1454 93.3682 30.8749 93.3682 30.2032V27.3114C93.3682 26.6584 93.4801 26.3878 93.5734 26.2759C93.7133 26.1173 93.8999 26.0427 94.1518 26.0427C94.413 26.0427 94.5995 26.1173 94.7301 26.2759C94.8234 26.3878 94.9354 26.6584 94.9354 27.3114V30.2032H94.954Z" fill="white"/>
<path d="M103.546 26.2758C103.676 26.1172 103.872 26.0426 104.115 26.0426C104.385 26.0426 104.562 26.1172 104.665 26.2665C104.777 26.4437 104.842 26.7329 104.852 27.1341V27.302H105.924V27.1341C105.887 25.4176 104.926 25.0538 104.115 25.0538C103.583 25.0538 103.135 25.2217 102.79 25.5575C102.445 25.8933 102.268 26.4624 102.268 27.246V30.3058C102.268 32.1156 103.275 32.498 104.115 32.498C104.926 32.498 105.896 32.1249 105.924 30.3524V30.1845H104.861V30.3524C104.852 30.8002 104.786 31.1174 104.665 31.2853C104.553 31.4346 104.376 31.5185 104.115 31.5185C103.863 31.5185 103.676 31.4439 103.546 31.2853C103.452 31.1734 103.34 30.9028 103.34 30.2312V27.3393C103.331 26.6583 103.443 26.3878 103.546 26.2758Z" fill="white"/>
<path d="M112.324 26.2479V27.6192L113.238 26.5837V32.4235H114.255V25.1005H113.332L112.324 26.2479Z" fill="white"/>
<path d="M119.021 25.0445C118.443 25.0445 118.014 25.2311 117.734 25.5949C117.464 25.9494 117.333 26.5091 117.333 27.2927C117.333 28.039 117.464 28.5707 117.725 28.9066C117.995 29.2517 118.387 29.429 118.882 29.429C118.956 29.429 119.021 29.429 119.087 29.4103L117.855 32.4141H118.947L120.094 29.5875C120.113 29.5409 120.15 29.4383 120.216 29.2797C120.281 29.1211 120.328 29.0185 120.346 28.9625C120.374 28.9066 120.402 28.8039 120.449 28.6733C120.495 28.5334 120.533 28.4215 120.551 28.3375C120.57 28.2536 120.598 28.1509 120.617 28.0203C120.645 27.8897 120.654 27.7591 120.663 27.6285C120.673 27.4979 120.682 27.3673 120.682 27.2274C120.682 26.4811 120.542 25.9307 120.272 25.5856C120.001 25.2217 119.572 25.0445 119.021 25.0445ZM119.674 27.2554C119.674 27.8431 119.591 28.1323 119.516 28.2629C119.46 28.3655 119.348 28.4961 119.021 28.4961C118.63 28.4961 118.546 28.3375 118.508 28.2815C118.443 28.1603 118.359 27.8804 118.359 27.2554C118.359 26.6304 118.443 26.3505 118.508 26.2292C118.536 26.1733 118.63 26.0053 119.012 26.0053C119.264 26.0053 119.432 26.08 119.516 26.2292C119.591 26.3505 119.674 26.6304 119.674 27.2554Z" fill="white"/>
<path d="M124.535 25.0445C123.957 25.0445 123.528 25.2311 123.248 25.5949C122.977 25.9494 122.847 26.5091 122.847 27.2927C122.847 28.039 122.977 28.5707 123.238 28.9066C123.509 29.2517 123.891 29.429 124.395 29.429C124.47 29.429 124.535 29.429 124.6 29.4103L123.369 32.4141H124.461L125.608 29.5875C125.627 29.5409 125.664 29.4383 125.729 29.2797C125.795 29.1211 125.841 29.0185 125.86 28.9625C125.888 28.9066 125.916 28.8039 125.962 28.6733C126.009 28.5334 126.046 28.4215 126.065 28.3375C126.084 28.2536 126.112 28.1509 126.13 28.0203C126.158 27.8897 126.168 27.7591 126.186 27.6285C126.196 27.4979 126.205 27.3673 126.205 27.2274C126.205 26.4811 126.065 25.9307 125.795 25.5856C125.515 25.2217 125.086 25.0445 124.535 25.0445ZM125.188 27.2554C125.188 27.8431 125.104 28.1323 125.03 28.2629C124.974 28.3655 124.862 28.4961 124.535 28.4961C124.143 28.4961 124.059 28.3375 124.022 28.2815C123.957 28.1603 123.873 27.8804 123.873 27.2554C123.873 26.6304 123.957 26.3505 124.022 26.2292C124.05 26.1733 124.143 26.0053 124.526 26.0053C124.778 26.0053 124.946 26.08 125.03 26.2292C125.104 26.3505 125.188 26.6304 125.188 27.2554Z" fill="white"/>
<path d="M128.863 26.2479V27.6192L129.777 26.5837V32.4235H130.794V25.1005H129.871L128.863 26.2479Z" fill="white"/>
<path d="M137.856 32.4235H138.911V26.0986H141.112V25.1005H137.856V32.4235Z" fill="white"/>
<path d="M145.319 25.0445C144.47 25.0445 143.463 25.427 143.463 27.2367V30.2965C143.463 32.1063 144.47 32.4888 145.319 32.4888C146.159 32.4888 147.166 32.1063 147.166 30.2965V27.2367C147.166 25.427 146.159 25.0445 145.319 25.0445ZM144.526 27.3114C144.526 26.6584 144.638 26.3878 144.741 26.2759C144.872 26.1173 145.067 26.0427 145.319 26.0427C145.581 26.0427 145.767 26.1173 145.907 26.2759C146 26.3878 146.112 26.6584 146.112 27.3114V30.2032C146.112 30.8656 146 31.1361 145.898 31.2574C145.767 31.416 145.571 31.4906 145.319 31.4906C145.058 31.4906 144.872 31.416 144.741 31.2574C144.648 31.1454 144.536 30.8749 144.536 30.2032V27.3114H144.526Z" fill="white"/>
<path d="M153.762 25.1005H150.581V26.1733C150.581 27.5632 150.534 28.636 150.432 29.3637C150.338 30.0353 150.143 30.735 149.863 31.4253H149.35V34H150.366V32.4235H153.38V34H154.387V31.4253H153.762V25.1005ZM152.708 26.0986V31.4253H150.973C151.215 30.763 151.383 30.1659 151.467 29.6342C151.56 29.0558 151.616 28.1229 151.616 26.8729V26.0893H152.708V26.0986Z" fill="white"/>
<path d="M158.826 25.2311L158.798 25.1005H157.903L156.205 32.4235H157.259L157.586 30.9495H159.125L159.461 32.4235H160.524L158.826 25.2311ZM158.901 29.998H157.791L158.341 27.4979L158.463 28.0483C158.565 28.4681 158.659 28.8879 158.752 29.3077L158.901 29.998Z" fill="white"/>
</svg>
