<svg width="28" height="27" viewBox="0 0 28 27" fill="none" xmlns="http://www.w3.org/2000/svg">
<path d="M24.9693 6.99337L23.1839 8.7788L18.7204 4.30972L20.5058 2.52429C20.8695 2.16059 21.5032 2.16059 21.8669 2.52429L24.9693 5.63226C25.344 6.00698 25.344 6.61865 24.9693 6.99337ZM10.0524 21.9271L5.58887 17.458L17.1279 5.90228L21.5914 10.3714L10.0524 21.9271ZM4.5584 19.6126L7.89777 22.9575L3.2469 24.2691L4.5584 19.6126ZM26.5618 4.0397L23.4594 0.931728C22.8533 0.325564 20.6656 -0.820638 18.9188 0.931728L3.19731 16.6645C3.05955 16.8022 2.96036 16.9675 2.91076 17.1549L0.541246 25.5916C0.431036 25.9829 0.546757 26.4017 0.827793 26.6937C1.11434 26.9858 1.68743 27.0354 1.92989 26.9803L10.361 24.6052C10.5483 24.5556 10.7136 24.4564 10.8514 24.3187L26.5618 8.58593C27.8127 7.33503 27.8127 5.29611 26.5618 4.0397Z" fill="#3754A9"/>
</svg>
