<?xml version="1.0" encoding="utf-8"?>
<!-- Generator: Adobe Illustrator 24.0.1, SVG Export Plug-In . SVG Version: 6.00 Build 0)  -->
<svg version="1.1" id="Слой_1" xmlns="http://www.w3.org/2000/svg" xmlns:xlink="http://www.w3.org/1999/xlink" x="0px" y="0px"
	 viewBox="0 0 500 500" style="enable-background:new 0 0 500 500;" xml:space="preserve">
<style type="text/css">
	.st0{fill:#F2F2F2;}
	.st1{fill:#E6E6E6;}
</style>
<g>
	<rect class="st0" width="500" height="500"/>
</g>
<path class="st1" d="M250,98c-83.8,0-152,68.2-152,152s68.2,152,152,152s152-68.2,152-152S333.8,98,250,98z M112.7,250
	c0-35.2,13.3-67.4,35.2-91.7l193.8,193.8c-24.3,21.9-56.5,35.2-91.7,35.2C174.3,387.3,112.7,325.7,112.7,250z M352.1,341.7
	L158.3,147.9c24.3-21.9,56.5-35.2,91.7-35.2c75.7,0,137.3,61.6,137.3,137.3C387.3,285.2,374,317.4,352.1,341.7z"/>
</svg>
