<svg width="201" height="33" viewBox="0 0 201 33" fill="none" xmlns="http://www.w3.org/2000/svg">
<path d="M46.9442 5.64802C46.6184 5.31992 46.2314 5.06162 45.806 4.88834C45.1658 4.6455 44.4857 4.53 43.8028 4.54812C42.9972 4.54812 42.3719 4.69633 41.9267 4.99272C41.7164 5.12339 41.5438 5.30849 41.4265 5.5292C41.3093 5.7499 41.2514 5.99832 41.259 6.24919C41.259 7.05075 41.7983 7.53078 42.8771 7.68929L45.0871 8.00244C46.788 8.22924 48.0407 8.79369 48.845 9.69577C49.6493 10.5978 50.0521 11.8762 50.0533 13.5309C50.0533 15.3982 49.3938 16.8595 48.0748 17.915C46.7558 18.9704 44.9404 19.4981 42.6286 19.4981C41.2062 19.5202 39.793 19.2622 38.4666 18.7384C37.7824 18.4433 36.9775 17.8763 36.0518 17.0374L38.9352 14.1011C39.2991 14.4207 39.706 14.6856 40.1435 14.8879C41.0614 15.2449 42.037 15.4226 43.0194 15.4117C44.7658 15.4117 45.6391 14.8441 45.6391 13.7087C45.6391 12.8195 45.1168 12.2963 44.0722 12.1391L41.8584 11.8221C38.5703 11.353 36.9263 9.58172 36.9263 6.50821C36.9263 4.66024 37.5428 3.20338 38.7758 2.13764C40.0089 1.0719 41.6953 0.539683 43.8351 0.540971C45.0919 0.519085 46.3406 0.750313 47.5095 1.22139C48.339 1.61135 49.1023 2.13335 49.7707 2.76781L46.9442 5.64802Z" fill="white"/>
<path d="M69.2247 19.3374H63.9853L59.7721 11.6943L58.2317 13.4997V19.3374H53.7871V0.699219H58.2317V7.29663L63.5224 0.699219H69.0236L62.7807 8.23801L69.2247 19.3374Z" fill="white"/>
<path d="M85.5552 19.3374H80.8583L80.0123 16.5616H74.3801L73.481 19.3374H68.7803L75.433 0.699219H78.9006L85.5552 19.3374ZM78.8248 12.74L77.2825 7.76249L75.6397 12.7362L78.8248 12.74Z" fill="white"/>
<path d="M99.4494 4.7837H94.9536V19.3374H90.4577V4.7837H85.9619V0.699219H99.4494V4.7837Z" fill="white"/>
<path d="M108.081 13.6314H99.6562V9.59912H108.081V13.6314Z" fill="white"/>
<path d="M126.487 0.699219V12.7884C126.487 14.7214 125.832 16.3226 124.522 17.5919C123.211 18.8613 121.547 19.494 119.527 19.4901C117.521 19.4901 115.868 18.8619 114.568 17.6054C113.268 16.349 112.617 14.7433 112.616 12.7884V0.699219H117.112V12.684C117.112 13.5397 117.326 14.2072 117.753 14.6866C118.181 15.166 118.772 15.4063 119.527 15.4076C119.861 15.4235 120.194 15.3662 120.504 15.2395C120.813 15.1127 121.093 14.9196 121.323 14.673C121.77 14.1859 121.992 13.5229 121.991 12.684V0.699219H126.487Z" fill="white"/>
<path d="M130.839 0.699219H138.083C139.897 0.699219 141.391 1.26238 142.564 2.38869C143.738 3.51499 144.325 4.94994 144.325 6.69353C144.325 8.4384 143.738 9.874 142.564 11.0003C141.391 12.1266 139.897 12.6891 138.083 12.6878H135.335V19.3374H130.839V0.699219ZM135.335 8.57823H137.877C138.133 8.58743 138.389 8.54486 138.629 8.45297C138.869 8.36108 139.089 8.22167 139.277 8.04278C139.452 7.86643 139.591 7.65645 139.685 7.42502C139.78 7.19358 139.829 6.94529 139.829 6.6945C139.829 6.4437 139.78 6.1954 139.685 5.96397C139.591 5.73253 139.452 5.52256 139.277 5.34621C139.09 5.16706 138.87 5.02735 138.629 4.93513C138.389 4.84291 138.133 4.79999 137.877 4.80883H135.335V8.57823Z" fill="white"/>
<path d="M157.148 5.64799C156.822 5.3203 156.435 5.06205 156.01 4.88831C155.37 4.64547 154.69 4.52998 154.007 4.5481C153.201 4.5481 152.576 4.6963 152.131 4.9927C151.92 5.12307 151.747 5.3081 151.63 5.52887C151.513 5.74965 151.455 5.99823 151.463 6.24916C151.463 7.05072 152.002 7.53075 153.081 7.68926L155.291 8.00241C156.992 8.22922 158.245 8.79366 159.049 9.69574C159.853 10.5978 160.255 11.8762 160.255 13.5309C160.255 15.3982 159.597 16.8595 158.279 17.9149C156.961 18.9704 155.146 19.4981 152.833 19.4981C151.41 19.5203 149.997 19.2624 148.671 18.7384C147.987 18.4433 147.182 17.8763 146.256 17.0374L149.134 14.105C149.497 14.4249 149.903 14.6899 150.34 14.8917C151.259 15.2486 152.235 15.4263 153.218 15.4156C154.964 15.4156 155.837 14.8479 155.837 13.7126C155.837 12.8234 155.315 12.3002 154.271 12.1429L152.062 11.8221C148.774 11.353 147.13 9.58169 147.13 6.50819C147.13 4.66022 147.747 3.20336 148.98 2.13762C150.213 1.07188 151.899 0.539657 154.039 0.540946C155.296 0.519263 156.545 0.750484 157.714 1.22137C158.543 1.61092 159.305 2.13298 159.973 2.76779L157.148 5.64799Z" fill="white"/>
<path d="M166.982 17.3581C166.988 17.6282 166.941 17.8968 166.843 18.1479C166.745 18.399 166.599 18.6274 166.412 18.8195C166.137 19.1059 165.784 19.302 165.398 19.3825C165.012 19.463 164.612 19.4244 164.248 19.2716C163.884 19.1188 163.573 18.8587 163.355 18.5247C163.137 18.1906 163.022 17.7979 163.024 17.3968C163.024 16.9979 163.14 16.608 163.357 16.2761C163.574 15.9442 163.883 15.6852 164.244 15.5318C164.606 15.3784 165.004 15.3375 165.388 15.4141C165.772 15.4907 166.125 15.6816 166.403 15.9625C166.588 16.1421 166.735 16.3587 166.835 16.5989C166.935 16.839 166.984 17.0975 166.982 17.3581Z" fill="white"/>
<path d="M184.551 19.3374H179.337L176.098 12.4017H174.581V19.3394H170.087V0.699219H177.33C179.146 0.699219 180.64 1.26238 181.812 2.38869C182.984 3.51499 183.571 4.94156 183.573 6.6684C183.6 8.00907 183.126 9.31014 182.245 10.3063C181.76 10.8047 181.205 11.2281 180.6 11.5628L184.551 19.3374ZM174.583 8.57822H177.127C177.383 8.58743 177.639 8.54486 177.879 8.45297C178.119 8.36107 178.339 8.22167 178.527 8.04278C178.702 7.86643 178.84 7.65645 178.935 7.42502C179.03 7.19358 179.079 6.94528 179.079 6.69449C179.079 6.4437 179.03 6.1954 178.935 5.96396C178.84 5.73253 178.702 5.52256 178.527 5.34621C178.339 5.16706 178.119 5.02735 177.879 4.93513C177.639 4.84291 177.383 4.79998 177.127 4.80883H174.583V8.57822Z" fill="white"/>
<path d="M201.001 0.699219V12.7884C201.001 14.7214 200.345 16.3226 199.035 17.5919C197.725 18.8613 196.06 19.494 194.039 19.4901C192.035 19.4901 190.383 18.8619 189.082 17.6054C187.78 16.349 187.129 14.7433 187.128 12.7884V0.699219H191.624V12.684C191.624 13.5397 191.838 14.2072 192.267 14.6866C192.696 15.166 193.286 15.4063 194.039 15.4076C194.372 15.4233 194.706 15.3659 195.016 15.2392C195.326 15.1124 195.606 14.9194 195.837 14.673C196.283 14.1859 196.506 13.5229 196.505 12.684V0.699219H201.001Z" fill="white"/>
<path d="M16.075 1.85377C19.8471 1.84106 23.4722 3.34324 26.165 6.0349C26.8098 6.68108 27.3917 7.38929 27.9026 8.14963C28.416 8.90946 28.8551 9.71876 29.2135 10.5659C29.9494 12.3129 30.3289 14.1942 30.3289 16.0953C30.3289 17.9965 29.9494 19.8777 29.2135 21.6247C28.8547 22.4717 28.4157 23.281 27.9026 24.041C27.391 24.799 26.8091 25.5052 26.165 26.1499C24.6703 27.6498 22.8717 28.7982 20.8953 29.5147C18.9189 30.2311 16.8126 30.4983 14.7241 30.2973C12.6357 30.0964 10.6157 29.4322 8.80582 28.3514C6.99596 27.2707 5.44008 25.7995 4.24733 24.041C3.73487 23.2809 3.29649 22.4717 2.93842 21.6247C2.20251 19.8777 1.82302 17.9965 1.82302 16.0953C1.82302 14.1942 2.20251 12.3129 2.93842 10.5659C3.29608 9.71878 3.73449 8.90947 4.24733 8.14963C5.80645 5.84791 7.98393 4.05323 10.5187 2.98073C12.2794 2.2347 14.1682 1.85294 16.075 1.85764V1.85377ZM16.075 0C7.19903 0 0 7.20825 0 16.0944C0 24.9805 7.19903 32.1887 16.075 32.1887C24.9509 32.1887 32.1519 24.9824 32.1519 16.0944C32.1519 7.20632 24.9434 0 16.075 0Z" fill="white"/>
<path fill-rule="evenodd" clip-rule="evenodd" d="M21.6336 16.6064L21.6191 16.6277C21.6253 16.6217 21.6302 16.6145 21.6336 16.6064Z" fill="white"/>
<path fill-rule="evenodd" clip-rule="evenodd" d="M24.4311 11.7147C24.2686 11.5502 23.6395 11.7988 22.8896 11.7055C22.0168 11.5966 21.4486 11.003 20.5235 10.578C19.8377 10.2634 18.8814 10.3293 18.2434 9.97081C16.593 9.03659 16.0637 8.01329 14.4792 7.98248C13.7543 7.96753 13.0564 11.3095 12.5053 12.8197C11.9615 14.9922 12.8236 15.2475 12.7 15.9958C12.6274 16.4471 11.9373 16.1953 11.9399 16.5432C12.2104 16.8697 12.5579 17.2806 12.3604 17.6957C12.1722 17.6938 11.9918 18.0546 12.0394 18.1649C11.577 18.8665 10.2349 20.0311 7.67474 19.9525C7.07066 19.9325 4.49928 18.8575 3.92403 18.3629C3.6912 18.1648 6.27265 20.51 8.06039 20.5848C9.8013 20.6596 12.068 19.4756 12.4941 19.2088C12.8864 19.5991 13.4909 19.4736 13.7164 19.5193C14.1451 19.5962 14.264 20.2145 14.4874 20.1182C14.7898 20.1269 14.9378 19.3554 15.1208 19.4683C15.3043 20.5439 16.0258 21.309 17.2328 21.7401C18.7731 21.9517 20.8837 22.2678 21.7584 22.393C22.5879 22.5131 22.7907 20.5988 22.9319 18.8438C23.0485 17.2662 23.6074 15.7171 23.7086 14.3686C23.7435 13.9018 23.7117 13.417 23.8332 13.0493C24.2939 11.9386 24.5919 11.8801 24.4311 11.7147ZM22.0742 14.4109C22.0992 14.4351 22.0211 14.6245 21.9417 14.6107C21.8623 14.5969 21.6936 14.6502 21.6347 14.639C21.5758 14.6277 21.4999 14.7379 21.4732 14.7732C21.4157 14.8654 21.2848 14.8214 21.2327 14.7525C21.1806 14.6836 21.1221 14.6439 21.1332 14.5862C21.1809 14.358 21.2155 14.3925 21.3546 14.2935C21.5185 14.2283 21.6871 14.1751 21.8589 14.1344C21.8991 14.1422 21.9244 14.1835 21.9467 14.1939C22.0134 14.2565 22.0563 14.3408 22.0677 14.4316L22.0742 14.4109ZM21.2507 12.5504L21.2476 12.5694C21.2482 12.5764 21.2474 12.5834 21.2453 12.5901L21.2476 12.5694C21.2356 12.6254 21.1875 12.7692 21.1158 12.7579C21.0441 12.7467 20.8668 12.7957 20.8088 12.7862C20.7507 12.7767 20.6714 12.8843 20.6455 12.9214C20.5889 13.0109 20.4563 12.9678 20.4068 12.8997C20.3572 12.8317 20.3059 12.7559 20.3187 12.6973C20.3655 12.4674 20.4082 12.5303 20.543 12.4313C20.7016 12.3679 20.8648 12.3168 21.0313 12.2782C21.0714 12.286 21.0967 12.3273 21.1216 12.3385C21.1848 12.4022 21.2266 12.4843 21.2408 12.5728L21.2507 12.5504Z" fill="white"/>
<path d="M40.0564 30.8933V31.5872H38.7456V30.8933C37.0117 30.8256 36.0557 29.6774 36.0557 27.9609C36.0557 26.2443 37.1218 25.2314 38.7456 25.1599V24.6206H40.0602V25.1599C41.6783 25.2276 42.7482 26.2501 42.7482 27.957C42.7482 29.6639 41.7807 30.8256 40.0564 30.8933ZM38.7456 26.3507C37.7971 26.399 37.3722 26.977 37.3722 28.0189C37.3722 29.0221 37.8255 29.6484 38.7456 29.7064V26.3507ZM40.0602 29.7064C40.9783 29.6484 41.4336 29.0221 41.4336 28.0189C41.4336 26.977 40.9973 26.399 40.0602 26.3507V29.7064Z" fill="white"/>
<path d="M47.959 31.539V27.1316L45.3373 31.539H44.1631V24.6709H45.4796V29.0705L48.1012 24.6709H49.2755V31.539H47.959Z" fill="white"/>
<path d="M53.5682 24.6709C54.8657 24.6709 55.7934 25.5582 55.7934 26.8127C55.7934 28.0672 54.8752 28.9545 53.5682 28.9545H52.2707V31.539H50.9561V24.6709H53.5682ZM53.5018 27.7483C54.088 27.7483 54.4769 27.3829 54.4769 26.8127C54.4769 26.2424 54.088 25.8674 53.5018 25.8674H52.2707V27.7483H53.5018Z" fill="white"/>
<path d="M62.0787 31.539V27.5356L60.7906 30.1414H59.9009L58.6053 27.5356V31.539H57.2793V24.6709H58.5768L60.3372 28.3842L62.0882 24.6709H63.3838V31.539H62.0787Z" fill="white"/>
<path d="M65.21 31.539V24.6709H69.6489V25.8674H66.5246V27.4796H69.1803V28.6761H66.5246V30.3443H69.6489V31.539H65.21Z" fill="white"/>
<path d="M74.9122 31.539V28.6645H72.6358V31.539H71.3193V24.6709H72.6358V27.4796H74.9122V24.6709H76.2287V31.539H74.9122Z" fill="white"/>
<path d="M81.7746 31.539V28.6645H79.4982V31.539H78.1836V24.6709H79.4982V27.4796H81.7746V24.6709H83.0911V31.539H81.7746Z" fill="white"/>
<path d="M87.5982 31.539H84.9424V24.6709H86.2589V27.2573H87.5868C88.9014 27.2573 89.7721 28.1446 89.7721 29.3972C89.7721 30.6498 88.9033 31.539 87.5982 31.539ZM87.4976 28.4461H86.2665V30.3366H87.4976C88.0933 30.3366 88.4727 29.9616 88.4727 29.3914C88.4727 28.8211 88.0895 28.4461 87.4976 28.4461ZM90.6504 31.539V24.6709H91.9669V31.539H90.6504Z" fill="white"/>
<path d="M97.5742 31.5393V27.132L94.9526 31.5393H93.7783V24.6713H95.0948V29.0708L97.7165 24.6713H98.8888V31.5393H97.5742ZM96.343 24.3059C95.4059 24.3059 94.8956 23.784 94.8103 22.8774H95.6431C95.7095 23.2254 95.9276 23.4284 96.3525 23.4284C96.7775 23.4284 96.9861 23.2254 97.043 22.8774H97.8872C97.7923 23.784 97.2802 24.3059 96.343 24.3059Z" fill="white"/>
<path d="M106.657 31.539V27.1316L104.028 31.539H102.863V24.6709H104.178V29.0705L106.8 24.6709H107.974V31.539H106.657Z" fill="white"/>
<path d="M113.312 31.539V28.6645H111.035V31.539H109.719V24.6709H111.035V27.4796H113.312V24.6709H114.624V31.539H113.312Z" fill="white"/>
<path d="M119.151 25.8674V31.539H117.837V25.8674H116.076V24.6709H120.912V25.8674H119.151Z" fill="white"/>
<path d="M122.36 31.539V24.6709H126.799V25.8674H123.677V27.4796H126.333V28.6761H123.677V30.3443H126.799V31.539H122.36Z" fill="white"/>
<path d="M131.079 24.6709C132.375 24.6709 133.302 25.5582 133.302 26.8127C133.302 28.0672 132.384 28.9545 131.079 28.9545H129.782V31.539H128.473V24.6709H131.079ZM131.013 27.7483C131.599 27.7483 131.988 27.3829 131.988 26.8127C131.988 26.2424 131.608 25.8674 131.013 25.8674H129.782V27.7483H131.013Z" fill="white"/>
<path d="M138.387 31.539V28.6645H136.11V31.539H134.79V24.6709H136.105V27.4796H138.381V24.6709H139.696V31.539H138.387Z" fill="white"/>
<path d="M141.45 31.539V24.6709H145.889V25.8674H142.765V27.4796H145.421V28.6761H142.765V30.3443H145.889V31.539H141.45Z" fill="white"/>
<path d="M150.128 25.8674V31.539H148.813V25.8674H147.062V24.6709H151.9V25.8674H150.128Z" fill="white"/>
<path d="M152.374 29.1129V27.9531H155.29V29.1129H152.374Z" fill="white"/>
<path d="M162.149 31.539V27.5356L160.863 30.1414H159.973L158.676 27.5356V31.539H157.359V24.6709H158.657L160.417 28.3842L162.168 24.6709H163.466V31.539H162.149Z" fill="white"/>
<path d="M169.257 31.539L168.859 30.3231H166.457L166.049 31.539H164.678L167.129 24.6709H168.161L170.627 31.539H169.257ZM167.677 26.7064L166.825 29.2058H168.498L167.677 26.7064Z" fill="white"/>
<path d="M173.177 25.8674V31.539H171.862V24.6709H176.102V25.8674H173.177Z" fill="white"/>
<path d="M180.674 31.539L180.278 30.3231H177.882L177.476 31.539H176.103L178.553 24.6709H179.584L182.05 31.539H180.674ZM179.104 26.7064L178.252 29.2058H179.927L179.104 26.7064Z" fill="white"/>
<path d="M185.306 31.5969C184.314 31.5969 183.536 31.4035 182.798 30.6903L183.64 29.8223C184.088 30.2176 184.666 30.4249 185.258 30.4022C185.837 30.4022 186.328 30.0756 186.328 29.5246C186.328 28.9273 185.913 28.5794 185.306 28.5794H184.463V27.4795H185.315C185.884 27.4795 186.233 27.1625 186.233 26.6116C186.233 26.0607 185.789 25.792 185.268 25.792C184.753 25.7616 184.246 25.9308 183.849 26.2656L183.035 25.417C183.678 24.8371 184.454 24.6167 185.325 24.6167C186.556 24.6167 187.55 25.359 187.55 26.5149C187.555 26.8206 187.475 27.1214 187.319 27.3827C187.163 27.644 186.938 27.8552 186.67 27.9918C186.969 28.1201 187.222 28.3384 187.397 28.6175C187.571 28.8966 187.657 29.2231 187.645 29.5536C187.645 30.7966 186.622 31.5969 185.306 31.5969Z" fill="white"/>
<path d="M193.023 31.539V27.1316L190.402 31.539H189.228V24.6709H190.544V29.0705L193.16 24.6709H194.334V31.539H193.023Z" fill="white"/>
<path d="M199.684 31.539V28.6645H197.407V31.539H196.091V24.6709H197.407V27.4796H199.684V24.6709H201V31.539H199.684Z" fill="white"/>
</svg>