<?xml version="1.0" encoding="utf-8"?>
<!-- Generator: Adobe Illustrator 24.0.1, SVG Export Plug-In . SVG Version: 6.00 Build 0)  -->
<svg version="1.1" id="Слой_1" xmlns="http://www.w3.org/2000/svg" xmlns:xlink="http://www.w3.org/1999/xlink" x="0px" y="0px"
	 viewBox="0 0 100 100" style="enable-background:new 0 0 100 100;" xml:space="preserve">
<style type="text/css">
	.st0{fill:#FFFFFF;}
	.st1{fill-rule:evenodd;clip-rule:evenodd;fill:#FFFFFF;}
</style>
<path class="st0" d="M85.3,20.2c0.7,0.7,1.1,1.7,1.1,2.7h3.7c0-2-0.8-3.9-2.2-5.3c-1.4-1.4-3.3-2.2-5.4-2.2c-2,0-3.9,0.8-5.4,2.2
	c-1.4,1.4-2.2,3.3-2.2,5.3v29.3h-5.3v3.7h9v-33c0-1.1,0.4-2,1.1-2.7C81.2,18.7,83.8,18.7,85.3,20.2z"/>
<path class="st0" d="M25.1,52.2V22.9c0-2-0.8-3.9-2.2-5.3c-1.4-1.4-3.3-2.2-5.4-2.2s-3.9,0.8-5.4,2.2c-1.4,1.4-2.2,3.3-2.2,5.3h3.7
	c0-1,0.4-2,1.1-2.7c1.4-1.4,4-1.4,5.5,0c0.7,0.7,1.1,1.7,1.1,2.7v33h9v-3.7H25.1z"/>
<path class="st0" d="M16.5,60.8V41c0-2-0.8-3.9-2.2-5.3c-1.4-1.4-3.4-2.2-5.4-2.2c-2.1,0-3.9,0.8-5.3,2.2c-1.4,1.5-2.2,3.3-2.2,5.4
	H5c0-1,0.4-2,1.1-2.7c0.8-0.7,1.7-1.1,2.8-1.1c1.1,0,2,0.4,2.7,1.1c0.7,0.7,1.1,1.7,1.1,2.8v23.5h17.6v-3.7L16.5,60.8L16.5,60.8z"/>
<path class="st0" d="M88.2,38.4l0.2-0.2c1.4-1.4,4.1-1.4,5.5,0C94.6,39,94.9,40,95,41h3.7c0-2-0.8-3.9-2.2-5.3l-0.2-0.2
	c-1.4-1.3-3.2-2-5.2-2c-2,0-3.8,0.7-5.2,2l-0.1,0.2c-1.4,1.4-2.2,3.3-2.2,5.3v19.8H69.6v3.7h17.6V41C87.2,40,87.5,39.2,88.2,38.4z"
	/>
<path class="st1" d="M89.7,71.6c-1.4-1.4-3.3-2.2-5.4-2.2H64.7V47l0.4-0.1c3-1.2,5-4.1,5-7.2c0-3.2-2-6-5-7.2l-0.4-0.1V14.7
	C64.7,6.6,58.1,0,50,0c-8.1,0-14.7,6.6-14.7,14.7v17.6l-0.4,0.1c-3,1.2-5,4.1-5,7.2c0,3.2,2,6,5,7.2l0.4,0.1v22.4H15.6
	c-2,0-3.9,0.8-5.4,2.2C8.8,73,8,74.9,8,76.9c0,2,0.8,3.9,2.2,5.3c1.4,1.4,3.3,2.2,5.4,2.2c0.1,0,0.2,0,0.2,0v-3.7
	c-1.1,0.1-2.2-0.3-3-1.1c-0.7-0.7-1.1-1.7-1.1-2.7c0-1,0.4-2,1.1-2.7c0.7-0.7,1.7-1.1,2.7-1.1h23.3V55.4h4.9v37c0,1-0.4,2-1.1,2.7
	c-1.5,1.5-4,1.5-5.5,0c-0.7-0.7-1.1-1.7-1.1-2.7h-3.7c0,2,0.8,3.9,2.2,5.3c1.4,1.4,3.3,2.2,5.4,2.2c2,0,3.9-0.8,5.4-2.2
	c1.4-1.4,2.2-3.3,2.2-5.3V55.4h4.9v37c0,2,0.8,3.9,2.2,5.3c1.4,1.4,3.3,2.2,5.4,2.2c2,0,3.9-0.8,5.4-2.2c1.4-1.4,2.2-3.3,2.2-5.3
	h-3.7c0,1-0.4,2-1.1,2.7c-1.5,1.5-4,1.5-5.5,0c-0.7-0.7-1.1-1.7-1.1-2.7v-37H61V73h23.3c1,0,2,0.4,2.7,1.1c0.7,0.7,1.1,1.7,1.1,2.7
	c0,1-0.4,2-1.1,2.7c-0.8,0.8-1.9,1.1-3,1.1v3.7c0.1,0,0.1,0,0.2,0c2,0,3.9-0.8,5.4-2.2c1.4-1.4,2.2-3.3,2.2-5.3
	C91.9,74.9,91.1,73,89.7,71.6z M41.1,43.8h-0.5c-3.7,0-5.9-1.9-5.9-5.1v-0.5h0.5c2,0,3.5,0.5,4.5,1.5c0.9,0.9,1.3,2.1,1.3,3.6V43.8z
	 M59.4,43.8h-0.5v-0.5c0-1.5,0.5-2.7,1.3-3.6c1-1,2.6-1.5,4.6-1.5h0.5v0.5C65.3,41.9,63.2,43.8,59.4,43.8z"/>
</svg>
