<svg width="45" height="47" viewBox="0 0 45 47" fill="none" xmlns="http://www.w3.org/2000/svg">
<path d="M38.8182 9.32729C39.1507 9.65865 39.3477 10.125 39.3477 10.5914H41.0472C41.0472 9.65865 40.6778 8.7873 40.0127 8.12458C39.3477 7.46186 38.4733 7.10596 37.5374 7.10596C36.6014 7.10596 35.727 7.47413 35.062 8.12458C34.397 8.7873 34.0275 9.65865 34.0275 10.5914V24.1648H31.5645V25.8584H35.727V10.5914C35.727 10.1005 35.9117 9.64638 36.2566 9.32729C36.9339 8.66457 38.1408 8.6523 38.8182 9.32729Z" fill="#7534E4"/>
<path d="M10.9722 24.1648V10.5914C10.9722 9.65865 10.6028 8.7873 9.93775 8.12458C9.27273 7.46186 8.39834 7.10596 7.46238 7.10596C6.52642 7.10596 5.65204 7.47413 4.98701 8.12458C4.3343 8.7873 3.96484 9.65865 3.96484 10.5914H5.66435C5.66435 10.125 5.8614 9.65865 6.19391 9.32729C6.85893 8.66457 8.06583 8.66457 8.73085 9.32729C9.06337 9.65865 9.26041 10.125 9.26041 10.5914V25.8584H13.4107V24.1648H10.9722Z" fill="#7534E4"/>
<path d="M6.99507 28.1288V18.9612C6.99507 18.0285 6.63793 17.1448 5.97291 16.4944C5.30788 15.8317 4.42118 15.4635 3.48522 15.4635C2.53695 15.4635 1.67488 15.8194 1.02217 16.4699C0.357143 17.1448 0 18.0162 0 18.9612H1.69951C1.69951 18.4826 1.87192 18.0407 2.20443 17.6971C2.56158 17.3535 3.00493 17.1817 3.48522 17.1817C3.97783 17.1817 4.42118 17.3657 4.75369 17.6971C5.09852 18.0407 5.28325 18.4948 5.28325 18.9735V29.8347H13.4236V28.1411H6.99507V28.1288Z" fill="#7534E4"/>
<path d="M40.1593 17.783L40.2332 17.6971C40.8982 17.0344 42.1174 17.0344 42.7701 17.6971C43.115 18.053 43.2874 18.4948 43.2997 18.9612H44.9992C44.9992 18.0285 44.6298 17.1571 43.977 16.5067L43.9032 16.4208C43.2628 15.8194 42.413 15.488 41.514 15.488C40.6027 15.488 39.7529 15.8194 39.1125 16.433L39.0509 16.5067C38.3859 17.1694 38.0165 18.0407 38.0165 18.9734V28.1411H31.5879V29.8347H39.7283V18.9734C39.716 18.5194 39.8637 18.1144 40.1593 17.783Z" fill="#7534E4"/>
<path fill-rule="evenodd" clip-rule="evenodd" d="M40.8627 33.1114C40.1977 32.4487 39.3233 32.0805 38.3874 32.0805H29.311V21.7347L29.4834 21.6734C30.8504 21.1334 31.7741 19.7957 31.7741 18.3352C31.7741 16.8748 30.8504 15.5371 29.4834 14.9971L29.311 14.9357V6.78673C29.311 3.0436 26.2568 0 22.5007 0C18.7445 0 15.6903 3.0436 15.6903 6.78673V14.9357L15.5179 14.9971C14.1509 15.5371 13.2273 16.8748 13.2273 18.3352C13.2273 19.7957 14.1509 21.1334 15.5179 21.6734L15.6903 21.7347V32.0805H6.60165C5.678 32.0805 4.7913 32.4487 4.12628 33.0991C3.46125 33.7618 3.0918 34.6332 3.0918 35.5659C3.0918 36.4986 3.46125 37.37 4.11396 38.0327C4.77899 38.6954 5.65337 39.0636 6.58933 39.0636C6.62628 39.0636 6.66322 39.0636 6.68786 39.0636V37.3454C6.18293 37.37 5.678 37.2104 5.32086 36.8545C4.97603 36.5109 4.7913 36.0691 4.7913 35.5905C4.7913 35.1118 4.97603 34.6577 5.30855 34.3264C5.65337 33.9827 6.09672 33.7987 6.57702 33.7987H17.3652V25.6374H19.6312V42.7576C19.6312 43.2363 19.4465 43.6903 19.114 44.0217C18.4366 44.6967 17.242 44.6967 16.5647 44.0217C16.2199 43.6781 16.0351 43.2363 16.0351 42.7576H14.3356C14.3356 43.6903 14.7051 44.5617 15.3578 45.2244C16.0228 45.8871 16.8972 46.2553 17.8332 46.2553C18.7691 46.2553 19.6435 45.8871 20.3085 45.2367C20.9736 44.574 21.343 43.7026 21.343 42.7699V25.6129H23.609V42.7331C23.609 43.6658 23.9785 44.5372 24.6312 45.1999C25.2962 45.8626 26.1706 46.2308 27.1066 46.2308C28.0425 46.2308 28.9169 45.8626 29.5819 45.2121C30.247 44.5494 30.6164 43.6781 30.6164 42.7454H28.9169C28.9169 43.224 28.7322 43.6781 28.3997 44.0094C27.7223 44.6844 26.5278 44.6844 25.8504 44.0094C25.5056 43.6658 25.3209 43.224 25.3209 42.7454V25.6129H27.5869V33.7741H38.375C38.8553 33.7741 39.311 33.9582 39.6435 34.2896C39.9883 34.6332 40.1731 35.075 40.1731 35.5536C40.1731 36.0323 39.9883 36.4864 39.6558 36.8177C39.2864 37.1859 38.7814 37.3454 38.2888 37.3209V39.039C38.3258 39.039 38.3504 39.039 38.3874 39.039C39.311 39.039 40.1977 38.6709 40.8627 38.0204C41.5278 37.3577 41.8972 36.4864 41.8972 35.5536C41.8972 34.6455 41.5278 33.7741 40.8627 33.1114ZM18.3627 20.2375H18.1411C16.4169 20.2375 15.4317 19.3784 15.4317 17.8934V17.6725H15.6534C16.5647 17.6602 17.279 17.8934 17.747 18.3598C18.1657 18.7648 18.3627 19.3293 18.3627 20.0166V20.2375ZM26.8479 20.262H26.6263V20.0411C26.6263 19.3416 26.8356 18.777 27.242 18.3598C27.7223 17.8934 28.4613 17.648 29.3726 17.6602H29.5943V17.8811C29.5943 19.3907 28.5967 20.262 26.8479 20.262Z" fill="#7534E4"/>
</svg>
