<?xml version="1.0" encoding="utf-8"?>
<!-- Generator: Adobe Illustrator 24.0.1, SVG Export Plug-In . SVG Version: 6.00 Build 0)  -->
<svg version="1.1" id="Слой_1" xmlns="http://www.w3.org/2000/svg" xmlns:xlink="http://www.w3.org/1999/xlink" x="0px" y="0px"
	 viewBox="0 0 417 900" style="enable-background:new 0 0 417 900;" xml:space="preserve">
<style type="text/css">
	.st0{opacity:0.7;clip-path:url(#SVGID_2_);fill:#FFFFFF;fill-opacity:0.2;enable-background:new    ;}
</style>
<g>
	<defs>
		<rect id="SVGID_1_" x="2.4" y="0.2" width="412.3" height="899.6"/>
	</defs>
	<clipPath id="SVGID_2_">
		<use xlink:href="#SVGID_1_"  style="overflow:visible;"/>
	</clipPath>
	<path class="st0" d="M67.6,354.1l28.9-28.9c0.5-0.5,1.2-0.5,1.7,0l8.4,8.4c0.5,0.5,0.5,1.2,0,1.7l-34.2,34.2l8.1,8.1l36.5-36.4
		c3.7-3.7,3.7-9.6,0-13.3l-13-13c-3.7-3.7-9.6-3.7-13.3,0l-28.9,28.9c-0.5,0.5-1.2,0.5-1.7,0l-8.4-8.4c-0.5-0.5-0.5-1.2,0-1.6
		l34.2-34.2l-8.1-8.1l-36.5,36.4c-3.7,3.7-3.7,9.6,0,13.3l13,13C57.9,357.8,63.9,357.8,67.6,354.1z"/>
	<path class="st0" d="M93.8,387.5l38.1-38.1c2.2-2.2,5.2-3.4,8.2-3.4h37.5c3.1,0,5.5,2.5,5.5,5.5V389c0,3.1-1.2,6.1-3.4,8.2
		l-38.1,38.1c-2.2,2.2-5.2,3.4-8.2,3.4H95.9c-3.1,0-5.5-2.5-5.5-5.5v-37.5C90.4,392.6,91.6,389.7,93.8,387.5z"/>
	<path class="st0" d="M93.8,282l38.1,38.1c2.2,2.2,5.2,3.4,8.2,3.4h37.5c3.1,0,5.5-2.5,5.5-5.5v-37.5c0-3.1-1.2-6.1-3.4-8.2
		l-38.1-38.1c-2.2-2.2-5.1-3.4-8.2-3.4H95.9c-3.1,0-5.5,2.5-5.5,5.5v37.5C90.4,276.8,91.6,279.8,93.8,282z"/>
	<path class="st0" d="M-21.5,397.2l38.1,38.1c2.2,2.2,5.2,3.4,8.2,3.4h37.5c3.1,0,5.5-2.5,5.5-5.5v-37.5c0-3.1-1.2-6.1-3.4-8.2
		l-38.1-38.1c-2.2-2.2-5.2-3.4-8.2-3.4h-37.5c-3.1,0-5.5,2.5-5.5,5.5V389C-25,392.1-23.7,395.1-21.5,397.2z"/>
	<path class="st0" d="M-21.5,272.2l38.1-38.1c2.2-2.2,5.2-3.4,8.2-3.4h37.5c3.1,0,5.5,2.5,5.5,5.5v37.5c0,3.1-1.2,6.1-3.4,8.2
		l-38.1,38.1c-2.2,2.2-5.2,3.4-8.2,3.4h-37.5c-3.1,0-5.5-2.5-5.5-5.5v-37.5C-25,277.4-23.7,274.4-21.5,272.2z"/>
	<path class="st0" d="M67.6,124.2l28.9-28.9c0.5-0.5,1.2-0.5,1.7,0l8.4,8.4c0.5,0.5,0.5,1.2,0,1.7l-34.2,34.2l8.1,8.1l36.5-36.4
		c3.7-3.7,3.7-9.6,0-13.3l-13-13c-3.7-3.7-9.6-3.7-13.3,0l-28.9,28.9c-0.5,0.5-1.2,0.5-1.7,0l-8.4-8.4c-0.5-0.5-0.5-1.2,0-1.7
		l34.2-34.2l-8.1-8.1L41.3,97.9c-3.7,3.7-3.7,9.6,0,13.3l13,13C57.9,127.8,63.9,127.8,67.6,124.2z"/>
	<path class="st0" d="M67.6,584.8l28.9-28.9c0.5-0.5,1.2-0.5,1.7,0l8.4,8.4c0.5,0.5,0.5,1.2,0,1.7l-34.2,34.2l8.1,8.1l36.5-36.4
		c3.7-3.7,3.7-9.6,0-13.3l-13-13c-3.7-3.7-9.6-3.7-13.3,0l-28.9,28.9c-0.5,0.5-1.2,0.5-1.7,0l-8.4-8.4c-0.5-0.5-0.5-1.2,0-1.6
		l34.2-34.2l-8.1-8.1l-36.5,36.4c-3.7,3.7-3.7,9.6,0,13.3l13,13C57.9,588.4,63.9,588.4,67.6,584.8z"/>
	<path class="st0" d="M67.6,815.3l28.9-28.9c0.5-0.5,1.2-0.5,1.7,0l8.4,8.4c0.5,0.5,0.5,1.2,0,1.7l-34.2,34.2l8.1,8.1l36.5-36.4
		c3.7-3.7,3.7-9.6,0-13.3l-13-13c-3.7-3.7-9.6-3.7-13.3,0l-28.9,28.9c-0.5,0.5-1.2,0.5-1.7,0l-8.4-8.4c-0.5-0.5-0.5-1.2,0-1.7
		l34.2-34.2l-8.1-8.1L41.3,789c-3.7,3.7-3.7,9.6,0,13.3l13,13C57.9,819,63.9,819,67.6,815.3z"/>
	<path class="st0" d="M-20.9,858.3l38.1,38.1c2.2,2.2,5.2,3.4,8.2,3.4h37.5c3.1,0,5.5-2.5,5.5-5.5v-37.5c0-3.1-1.2-6.1-3.4-8.2
		l-38.1-38.1c-2.2-2.2-5.2-3.4-8.2-3.4h-37.5c-3.1,0-5.5,2.5-5.5,5.5v37.5C-24.3,853.2-23.1,856.1-20.9,858.3z"/>
	<path class="st0" d="M-20.9,733.3l38.1-38.1c2.2-2.2,5.2-3.4,8.2-3.4h37.5c3.1,0,5.5,2.5,5.5,5.5v37.5c0,3.1-1.2,6.1-3.4,8.2
		l-38.1,38.1c-2.2,2.2-5.2,3.4-8.2,3.4h-37.5c-3.1,0-5.5-2.5-5.5-5.5v-37.5C-24.3,738.4-23.1,735.5-20.9,733.3z"/>
	<path class="st0" d="M-20.9,627.8l38.1,38.1c2.2,2.2,5.2,3.4,8.2,3.4h37.5c3.1,0,5.5-2.5,5.5-5.5v-37.5c0-3.1-1.2-6.1-3.4-8.2
		L26.9,580c-2.2-2.2-5.2-3.4-8.2-3.4h-37.5c-3.1,0-5.5,2.5-5.5,5.5v37.5C-24.3,622.6-23.1,625.6-20.9,627.8z"/>
	<path class="st0" d="M-20.9,502.8l38.1-38.1c2.2-2.2,5.2-3.4,8.2-3.4h37.5c3.1,0,5.5,2.5,5.5,5.5v37.5c0,3.1-1.2,6.1-3.4,8.2
		l-38.1,38.1c-2.2,2.2-5.2,3.4-8.2,3.4h-37.5c-3.1,0-5.5-2.5-5.5-5.5V511C-24.3,507.9-23.1,505-20.9,502.8z"/>
	<path class="st0" d="M-20.9,166.7l38.1,38.1c2.2,2.2,5.2,3.4,8.2,3.4h37.5c3.1,0,5.5-2.5,5.5-5.5v-37.5c0-3.1-1.2-6.1-3.4-8.2
		l-38.1-38.1c-2.2-2.2-5.2-3.4-8.2-3.4h-37.5c-3.1,0-5.5,2.5-5.5,5.5v37.5C-24.3,161.6-23.1,164.5-20.9,166.7z"/>
	<path class="st0" d="M-20.9,41.7L17.2,3.6c2.2-2.2,5.2-3.4,8.2-3.4h37.5c3.1,0,5.5,2.5,5.5,5.5v37.5c0,3.1-1.2,6.1-3.4,8.2
		L26.9,89.5c-2.2,2.2-5.2,3.4-8.2,3.4h-37.5c-3.1,0-5.5-2.5-5.5-5.5V49.9C-24.3,46.9-23.1,43.9-20.9,41.7z"/>
	<path class="st0" d="M183.7,700.2l28.9-28.9c0.5-0.5,1.2-0.5,1.7,0l8.4,8.4c0.5,0.5,0.5,1.2,0,1.7l-34.2,34.2l8.1,8.1l36.5-36.4
		c3.7-3.7,3.7-9.6,0-13.3l-13-13c-3.7-3.7-9.6-3.7-13.3,0l-28.9,28.9c-0.5,0.5-1.2,0.5-1.7,0l-8.4-8.4c-0.5-0.5-0.5-1.2,0-1.6
		l34.2-34.2l-8.1-8.1l-36.5,36.4c-3.7,3.7-3.7,9.6,0,13.3l13,13C174,703.8,180,703.8,183.7,700.2z"/>
	<path class="st0" d="M183.7,469.8l28.9-28.9c0.5-0.5,1.2-0.5,1.7,0l8.4,8.4c0.5,0.5,0.5,1.2,0,1.7l-34.2,34.2l8.1,8.1l36.5-36.4
		c3.7-3.7,3.7-9.6,0-13.3l-13-13c-3.7-3.7-9.6-3.7-13.3,0l-28.9,28.9c-0.5,0.5-1.2,0.5-1.7,0l-8.4-8.4c-0.5-0.5-0.5-1.2,0-1.6
		l34.2-34.2l-8.1-8.1l-36.5,36.4c-3.7,3.7-3.7,9.6,0,13.3l13,13C174,473.4,180,473.4,183.7,469.8z"/>
	<path class="st0" d="M183.7,239.1l28.9-28.9c0.5-0.5,1.2-0.5,1.7,0l8.4,8.4c0.5,0.5,0.5,1.2,0,1.7l-34.2,34.2l8.1,8.1l36.5-36.4
		c3.7-3.7,3.7-9.6,0-13.3l-13-13c-3.7-3.7-9.6-3.7-13.3,0l-28.9,28.9c-0.5,0.5-1.2,0.5-1.7,0l-8.4-8.4c-0.5-0.5-0.5-1.2,0-1.7
		l34.2-34.2l-8.1-8.1l-36.5,36.4c-3.7,3.7-3.7,9.6,0,13.3l13,13C174,242.8,180,242.8,183.7,239.1z"/>
	<path class="st0" d="M94.6,848.6l38.1-38.1c2.2-2.2,5.2-3.4,8.2-3.4h37.5c3.1,0,5.5,2.5,5.5,5.5v37.5c0,3.1-1.2,6.1-3.4,8.2
		l-38.1,38.1c-2.2,2.2-5.2,3.4-8.2,3.4H96.7c-3.1,0-5.5-2.5-5.5-5.5v-37.5C91.2,853.7,92.4,850.8,94.6,848.6z"/>
	<path class="st0" d="M94.6,743l38.1,38.1c2.2,2.2,5.2,3.4,8.2,3.4h37.5c3.1,0,5.5-2.5,5.5-5.5v-37.5c0-3.1-1.2-6.1-3.4-8.2
		l-38.1-38.1c-2.2-2.2-5.2-3.4-8.2-3.4H96.7c-3.1,0-5.5,2.5-5.5,5.5v37.5C91.2,737.9,92.4,740.9,94.6,743z"/>
	<path class="st0" d="M209.9,733.3l38.1-38.1c2.2-2.2,5.2-3.4,8.2-3.4h37.5c3.1,0,5.5,2.5,5.5,5.5v37.5c0,3.1-1.2,6.1-3.4,8.2
		l-38.1,38.1c-2.2,2.2-5.2,3.4-8.2,3.4H212c-3.1,0-5.5-2.5-5.5-5.5v-37.5C206.5,738.4,207.7,735.5,209.9,733.3z"/>
	<path class="st0" d="M325.2,618l38.1-38.1c2.2-2.2,5.1-3.4,8.2-3.4h37.5c3.1,0,5.5,2.5,5.5,5.5v37.5c0,3.1-1.2,6.1-3.4,8.2
		l-38.1,38.1c-2.2,2.2-5.2,3.4-8.2,3.4h-37.5c-3.1,0-5.5-2.5-5.5-5.5v-37.5C321.8,623.2,323,620.2,325.2,618z"/>
	<path class="st0" d="M94.6,618l38.1-38.1c2.2-2.2,5.2-3.4,8.2-3.4h37.5c3.1,0,5.5,2.5,5.5,5.5v37.5c0,3.1-1.2,6.1-3.4,8.2
		l-38.1,38.1c-2.2,2.2-5.2,3.4-8.2,3.4H96.7c-3.1,0-5.5-2.5-5.5-5.5v-37.5C91.2,623.2,92.4,620.2,94.6,618z"/>
	<path class="st0" d="M94.6,512.5l38.1,38.1c2.2,2.2,5.2,3.4,8.2,3.4h37.5c3.1,0,5.5-2.5,5.5-5.5V511c0-3.1-1.2-6.1-3.4-8.2
		l-38.1-38.1c-2.2-2.2-5.2-3.4-8.2-3.4H96.7c-3.1,0-5.5,2.5-5.5,5.5v37.5C91.2,507.4,92.4,510.3,94.6,512.5z"/>
	<path class="st0" d="M209.9,502.8l38.1-38.1c2.2-2.2,5.2-3.4,8.2-3.4h37.5c3.1,0,5.5,2.5,5.5,5.5v37.5c0,3.1-1.2,6.1-3.4,8.2
		l-38.1,38.1c-2.2,2.2-5.2,3.4-8.2,3.4H212c-3.1,0-5.5-2.5-5.5-5.5V511C206.5,507.9,207.7,505,209.9,502.8z"/>
	<path class="st0" d="M325.2,387.5l38.1-38.1c2.2-2.2,5.1-3.4,8.2-3.4h37.5c3.1,0,5.5,2.5,5.5,5.5V389c0,3.1-1.2,6.1-3.4,8.2
		l-38.1,38.1c-2.2,2.2-5.2,3.4-8.2,3.4h-37.5c-3.1,0-5.5-2.5-5.5-5.5v-37.5C321.8,392.6,323,389.7,325.2,387.5z"/>
	<path class="st0" d="M373.1,234.1c-2.2-2.2-5.1-3.4-8.2-3.4h-37.5c-3.1,0-5.5,2.5-5.5,5.5v37.5c0,3.1,1.2,6.1,3.4,8.2l38.1,38.1
		c2.2,2.2,5.2,3.4,8.2,3.4h37.5c3.1,0,5.5-2.5,5.5-5.5v-37.5L373.1,234.1z"/>
	<path class="st0" d="M209.9,397.2l38.1,38.1c2.2,2.2,5.2,3.4,8.2,3.4h37.5c3.1,0,5.5-2.5,5.5-5.5v-37.5c0-3.1-1.2-6.1-3.4-8.2
		l-38.1-38.1c-2.2-2.2-5.2-3.4-8.2-3.4H212c-3.1,0-5.5,2.5-5.5,5.5V389C206.5,392.1,207.7,395.1,209.9,397.2z"/>
	<path class="st0" d="M325.2,157l38.1-38.1c2.2-2.2,5.1-3.4,8.2-3.4h37.5c3.1,0,5.5,2.5,5.5,5.5v37.5c0,3.1-1.2,6.1-3.4,8.2
		l-38.1,38.1c-2.2,2.2-5.2,3.4-8.2,3.4h-37.5c-3.1,0-5.5-2.5-5.5-5.5v-37.5C321.8,162.1,323,159.1,325.2,157z"/>
	<path class="st0" d="M94.6,157l38.1-38.1c2.2-2.2,5.2-3.4,8.2-3.4h37.5c3.1,0,5.5,2.5,5.5,5.5v37.5c0,3.1-1.2,6.1-3.4,8.2
		l-38.1,38.1c-2.2,2.2-5.2,3.4-8.2,3.4H96.7c-3.1,0-5.5-2.5-5.5-5.5v-37.5C91.2,162.1,92.4,159.1,94.6,157z"/>
	<path class="st0" d="M209.9,166.7l38.1,38.1c2.2,2.2,5.2,3.4,8.2,3.4h37.5c3.1,0,5.5-2.5,5.5-5.5v-37.5c0-3.1-1.2-6.1-3.4-8.2
		l-38.1-38.1c-2.2-2.2-5.2-3.4-8.2-3.4H212c-3.1,0-5.5,2.5-5.5,5.5v37.5C206.5,161.6,207.7,164.5,209.9,166.7z"/>
	<path class="st0" d="M94.6,51.4l38.1,38.1c2.2,2.2,5.2,3.4,8.2,3.4h37.5c3.1,0,5.5-2.5,5.5-5.5V49.9c0-3.1-1.2-6.1-3.4-8.2
		L142.4,3.6c-2.2-2.2-5.2-3.4-8.2-3.4H96.7c-3.1,0-5.5,2.5-5.5,5.5v37.5C91.2,46.3,92.4,49.3,94.6,51.4z"/>
	<path class="st0" d="M209.9,41.7L248,3.6c2.2-2.2,5.2-3.4,8.2-3.4h37.5c3.1,0,5.5,2.5,5.5,5.5v37.5c0,3.1-1.2,6.1-3.4,8.2
		l-38.1,38.1c-2.2,2.2-5.2,3.4-8.2,3.4H212c-3.1,0-5.5-2.5-5.5-5.5V49.9C206.5,46.9,207.7,43.9,209.9,41.7z"/>
</g>
</svg>
