<?xml version="1.0" encoding="utf-8"?>
<!-- Generator: Adobe Illustrator 24.0.1, SVG Export Plug-In . SVG Version: 6.00 Build 0)  -->
<svg version="1.1" id="Слой_1" xmlns="http://www.w3.org/2000/svg" xmlns:xlink="http://www.w3.org/1999/xlink" x="0px" y="0px"
	 viewBox="0 0 397 686" style="enable-background:new 0 0 397 686;" xml:space="preserve">
<style type="text/css">
	.st0{clip-path:url(#SVGID_2_);}
	.st1{opacity:0.7;fill:#FFFFFF;fill-opacity:0.2;enable-background:new    ;}
	.st2{opacity:0.7;}
</style>
<g>
	<defs>
		<rect id="SVGID_1_" x="0" width="397" height="686"/>
	</defs>
	<clipPath id="SVGID_2_">
		<use xlink:href="#SVGID_1_"  style="overflow:visible;"/>
	</clipPath>
	<g class="st0">
		<path class="st1" d="M264.3,415.6l-22,22c-0.3,0.3-0.9,0.3-1.3,0l-6.4-6.4c-0.3-0.3-0.3-0.9,0-1.3l26-26l-6.2-6.2l-27.8,27.8
			c-2.8,2.8-2.8,7.3,0,10.1l9.9,9.9c2.8,2.8,7.3,2.8,10.1,0l22-22c0.3-0.3,0.9-0.3,1.3,0l6.4,6.4c0.3,0.3,0.3,0.9,0,1.3l-26,26
			l6.2,6.2l27.8-27.8c2.8-2.8,2.8-7.3,0-10.1l-9.9-9.9C271.6,412.8,267.1,412.8,264.3,415.6z"/>
		<g class="st2">
			<path class="st1" d="M244.3,390.1l-29,29c-1.7,1.7-3.9,2.6-6.3,2.6h-28.6c-2.3,0-4.2-1.9-4.2-4.2V389c0-2.3,0.9-4.6,2.6-6.3
				l29-29c1.7-1.7,3.9-2.6,6.3-2.6h28.6c2.3,0,4.2,1.9,4.2,4.2v28.6C246.9,386.2,246,388.5,244.3,390.1z"/>
			<path class="st1" d="M244.3,470.5l-29-29c-1.7-1.7-3.9-2.6-6.3-2.6h-28.6c-2.3,0-4.2,1.9-4.2,4.2v28.6c0,2.3,0.9,4.6,2.6,6.3
				l29,29c1.7,1.7,3.9,2.6,6.3,2.6h28.6c2.3,0,4.2-1.9,4.2-4.2v-28.6C246.9,474.4,246,472.2,244.3,470.5z"/>
		</g>
		<g class="st2">
			<path class="st1" d="M332.1,382.7l-29-29c-1.7-1.7-3.9-2.6-6.3-2.6h-28.6c-2.3,0-4.2,1.9-4.2,4.2v28.5c0,2.3,0.9,4.6,2.6,6.3
				l29,29c1.7,1.7,3.9,2.6,6.3,2.6h28.6c2.3,0,4.2-1.9,4.2-4.2V389C334.7,386.6,333.8,384.4,332.1,382.7z"/>
			<path class="st1" d="M332.1,477.9l-29,29c-1.7,1.7-3.9,2.6-6.3,2.6h-28.6c-2.3,0-4.2-1.9-4.2-4.2v-28.6c0-2.3,0.9-4.6,2.6-6.3
				l29-29c1.7-1.7,3.9-2.6,6.3-2.6h28.6c2.3,0,4.2,1.9,4.2,4.2v28.6C334.7,474,333.8,476.3,332.1,477.9z"/>
		</g>
		<path class="st1" d="M264.3,590.7l-22,22c-0.3,0.3-0.9,0.3-1.3,0l-6.4-6.4c-0.3-0.3-0.3-0.9,0-1.3l26-26l-6.2-6.2l-27.8,27.8
			c-2.8,2.8-2.8,7.3,0,10.1l9.9,9.9c2.8,2.8,7.3,2.8,10.1,0l22-22c0.3-0.3,0.9-0.3,1.3,0l6.4,6.4c0.3,0.3,0.3,0.9,0,1.3l-26,26
			l6.2,6.2l27.8-27.8c2.8-2.8,2.8-7.3,0-10.1l-9.9-9.9C271.6,587.9,267.1,587.9,264.3,590.7z"/>
		<path class="st1" d="M264.3,239.9l-22,22c-0.3,0.3-0.9,0.3-1.3,0l-6.4-6.4c-0.3-0.3-0.3-0.9,0-1.3l26-26l-6.2-6.2l-27.8,27.8
			c-2.8,2.8-2.8,7.3,0,10.1l9.9,9.9c2.8,2.8,7.3,2.8,10.1,0l22-22c0.3-0.3,0.9-0.3,1.3,0l6.4,6.4c0.3,0.3,0.3,0.9,0,1.3l-26,26
			l6.2,6.2l27.8-27.8c2.8-2.8,2.8-7.3,0-10.1l-9.9-9.9C271.6,237.1,267.1,237.1,264.3,239.9z"/>
		<path class="st1" d="M264.3,64.3l-22,22c-0.3,0.3-0.9,0.3-1.3,0l-6.4-6.4c-0.3-0.3-0.3-0.9,0-1.3l26-26l-6.2-6.2l-27.8,27.8
			c-2.8,2.8-2.8,7.3,0,10.1l9.9,9.9c2.8,2.8,7.3,2.8,10.1,0l22-22c0.3-0.3,0.9-0.3,1.3,0l6.4,6.4c0.3,0.3,0.3,0.9,0,1.3l-26,26
			l6.2,6.2l27.8-27.8c2.8-2.8,2.8-7.3,0-10.1l-9.9-9.9C271.6,61.6,267.1,61.6,264.3,64.3z"/>
		<path class="st1" d="M351.6,152l-22,22c-0.3,0.3-0.9,0.3-1.3,0l-6.4-6.4c-0.3-0.3-0.3-0.9,0-1.3l26-26l-6.2-6.2l-27.8,27.8
			c-2.8,2.8-2.8,7.3,0,10.1l9.9,9.9c2.8,2.8,7.3,2.8,10.1,0l22-22c0.3-0.3,0.9-0.3,1.3,0l6.4,6.4c0.3,0.3,0.3,0.9,0,1.3l-26,26
			l6.2,6.2l27.8-27.8c2.8-2.8,2.8-7.3,0-10.1l-9.9-9.9C359,149.3,354.4,149.3,351.6,152z"/>
		<path class="st1" d="M351.6,327.5l-22,22c-0.3,0.3-0.9,0.3-1.3,0l-6.4-6.4c-0.3-0.3-0.3-0.9,0-1.3l26-26l-6.2-6.2l-27.8,27.8
			c-2.8,2.8-2.8,7.3,0,10.1l9.9,9.9c2.8,2.8,7.3,2.8,10.1,0l22-22c0.3-0.3,0.9-0.3,1.3,0l6.4,6.4c0.3,0.3,0.3,0.9,0,1.3l-26,26
			l6.2,6.2l27.8-27.8c2.8-2.8,2.8-7.3,0-10.1l-9.9-9.9C359,324.7,354.4,324.7,351.6,327.5z"/>
		<path class="st1" d="M351.6,503.1l-22,22c-0.3,0.3-0.9,0.3-1.3,0l-6.4-6.4c-0.3-0.3-0.3-0.9,0-1.3l26-26l-6.2-6.2L314.1,513
			c-2.8,2.8-2.8,7.3,0,10.1l9.9,9.9c2.8,2.8,7.3,2.8,10.1,0l22-22c0.3-0.3,0.9-0.3,1.3,0l6.4,6.4c0.3,0.3,0.3,0.9,0,1.3l-26,26
			l6.2,6.2l27.8-27.8c2.8-2.8,2.8-7.3,0-10.1l-9.9-9.9C359,500.4,354.4,500.4,351.6,503.1z"/>
		<g class="st2">
			<path class="st1" d="M419.5,39l-29,29c-1.7,1.7-3.9,2.6-6.3,2.6h-28.6c-2.3,0-4.2-1.9-4.2-4.2V37.9c0-2.3,0.9-4.6,2.6-6.3l29-29
				c1.7-1.7,3.9-2.6,6.3-2.6l28.6,0c2.3,0,4.2,1.9,4.2,4.2v28.6C422.1,35.1,421.2,37.3,419.5,39z"/>
			<path class="st1" d="M331.7,31.6l-29-29C301,0.9,298.7,0,296.4,0l-28.6,0c-2.3,0-4.2,1.9-4.2,4.2v28.6c0,2.3,0.9,4.6,2.6,6.3
				l29,29c1.7,1.7,3.9,2.6,6.3,2.6h28.6c2.3,0,4.2-1.9,4.2-4.2V37.9C334.3,35.5,333.3,33.2,331.7,31.6z"/>
			<path class="st1" d="M419.5,119.4l-29-29c-1.7-1.7-3.9-2.6-6.3-2.6h-28.6c-2.3,0-4.2,1.9-4.2,4.2v28.6c0,2.3,0.9,4.6,2.6,6.3
				l29,29c1.7,1.7,3.9,2.6,6.3,2.6h28.6c2.3,0,4.2-1.9,4.2-4.2v-28.6C422.1,123.3,421.2,121,419.5,119.4z"/>
			<path class="st1" d="M331.7,126.8l-29,29c-1.7,1.7-3.9,2.6-6.3,2.6h-28.6c-2.3,0-4.2-1.9-4.2-4.2v-28.6c0-2.3,0.9-4.6,2.6-6.3
				l29-29c1.7-1.7,3.9-2.6,6.3-2.6h28.6c2.3,0,4.2,1.9,4.2,4.2v28.6C334.3,122.9,333.3,125.1,331.7,126.8z"/>
		</g>
		<g class="st2">
			<path class="st1" d="M419.5,214.6l-29,29c-1.7,1.7-3.9,2.6-6.3,2.6h-28.6c-2.3,0-4.2-1.9-4.2-4.2v-28.6c0-2.3,0.9-4.6,2.6-6.3
				l29-29c1.7-1.7,3.9-2.6,6.3-2.6h28.6c2.3,0,4.2,1.9,4.2,4.2v28.6C422.1,210.7,421.2,212.9,419.5,214.6z"/>
			<path class="st1" d="M331.7,207.2l-29-29c-1.7-1.7-3.9-2.6-6.3-2.6h-28.6c-2.3,0-4.2,1.9-4.2,4.2v28.6c0,2.3,0.9,4.6,2.6,6.3
				l29,29c1.7,1.7,3.9,2.6,6.3,2.6h28.6c2.3,0,4.2-1.9,4.2-4.2v-28.6C334.3,211.1,333.3,208.8,331.7,207.2z"/>
			<path class="st1" d="M419.5,294.9l-29-29c-1.7-1.7-3.9-2.6-6.3-2.6h-28.6c-2.3,0-4.2,1.9-4.2,4.2v28.6c0,2.3,0.9,4.6,2.6,6.3
				l29,29c1.7,1.7,3.9,2.6,6.3,2.6h28.6c2.3,0,4.2-1.9,4.2-4.2v-28.6C422.1,298.9,421.2,296.6,419.5,294.9z"/>
			<path class="st1" d="M331.7,302.4l-29,29c-1.7,1.7-3.9,2.6-6.3,2.6h-28.6c-2.3,0-4.2-1.9-4.2-4.2v-28.6c0-2.3,0.9-4.6,2.6-6.3
				l29-29c1.7-1.7,3.9-2.6,6.3-2.6h28.6c2.3,0,4.2,1.9,4.2,4.2v28.6C334.3,298.4,333.3,300.7,331.7,302.4z"/>
		</g>
		<path class="st1" d="M419.5,390.1l-29,29c-1.7,1.7-3.9,2.6-6.3,2.6h-28.6c-2.3,0-4.2-1.9-4.2-4.2V389c0-2.3,0.9-4.6,2.6-6.3l29-29
			c1.7-1.7,3.9-2.6,6.3-2.6h28.6c2.3,0,4.2,1.9,4.2,4.2v28.6C422.1,386.2,421.2,388.5,419.5,390.1z"/>
		<path class="st1" d="M419.5,470.5l-29-29c-1.7-1.7-3.9-2.6-6.3-2.6h-28.6c-2.3,0-4.2,1.9-4.2,4.2v28.6c0,2.3,0.9,4.6,2.6,6.3
			l29,29c1.7,1.7,3.9,2.6,6.3,2.6h28.6c2.3,0,4.2-1.9,4.2-4.2v-28.6C422.1,474.4,421.2,472.2,419.5,470.5z"/>
		<g class="st2">
			<path class="st1" d="M419.5,565.7l-29,29c-1.7,1.7-3.9,2.6-6.3,2.6h-28.6c-2.3,0-4.2-1.9-4.2-4.2v-28.6c0-2.3,0.9-4.6,2.6-6.3
				l29-29c1.7-1.7,3.9-2.6,6.3-2.6h28.6c2.3,0,4.2,1.9,4.2,4.2v28.6C422.1,561.8,421.2,564,419.5,565.7z"/>
			<path class="st1" d="M331.7,558.3l-29-29c-1.7-1.7-3.9-2.6-6.3-2.6h-28.6c-2.3,0-4.2,1.9-4.2,4.2v28.6c0,2.3,0.9,4.6,2.6,6.3
				l29,29c1.7,1.7,3.9,2.6,6.3,2.6h28.6c2.3,0,4.2-1.9,4.2-4.2v-28.6C334.3,562.2,333.3,559.9,331.7,558.3z"/>
			<path class="st1" d="M419.5,646.1l-29-29c-1.7-1.7-3.9-2.6-6.3-2.6h-28.6c-2.3,0-4.2,1.9-4.2,4.2v28.6c0,2.3,0.9,4.6,2.6,6.3
				l29,29c1.7,1.7,3.9,2.6,6.3,2.6h28.6c2.3,0,4.2-1.9,4.2-4.2v-28.6C422.1,650,421.2,647.7,419.5,646.1z"/>
			<path class="st1" d="M331.7,653.5l-29,29c-1.7,1.7-3.9,2.6-6.3,2.6h-28.6c-2.3,0-4.2-1.9-4.2-4.2v-28.6c0-2.3,0.9-4.6,2.6-6.3
				l29-29c1.7-1.7,3.9-2.6,6.3-2.6h28.6c2.3,0,4.2,1.9,4.2,4.2v28.6C334.3,649.6,333.3,651.8,331.7,653.5z"/>
		</g>
		<path class="st1" d="M175.9,152l-22,22c-0.3,0.3-0.9,0.3-1.3,0l-6.4-6.4c-0.3-0.3-0.3-0.9,0-1.3l26-26l-6.2-6.2l-27.8,27.8
			c-2.8,2.8-2.8,7.3,0,10.1l9.9,9.9c2.8,2.8,7.3,2.8,10.1,0l22-22c0.3-0.3,0.9-0.3,1.3,0l6.4,6.4c0.3,0.3,0.3,0.9,0,1.3l-26,26
			l6.2,6.2l27.8-27.8c2.8-2.8,2.8-7.3,0-10.1L186,152C183.2,149.3,178.7,149.3,175.9,152z"/>
		<path class="st1" d="M175.9,327.5l-22,22c-0.3,0.3-0.9,0.3-1.3,0l-6.4-6.4c-0.3-0.3-0.3-0.9,0-1.3l26-26l-6.2-6.2l-27.8,27.8
			c-2.8,2.8-2.8,7.3,0,10.1l9.9,9.9c2.8,2.8,7.3,2.8,10.1,0l22-22c0.3-0.3,0.9-0.3,1.3,0l6.4,6.4c0.3,0.3,0.3,0.9,0,1.3l-26,26
			l6.2,6.2l27.8-27.8c2.8-2.8,2.8-7.3,0-10.1l-9.9-9.9C183.2,324.7,178.7,324.7,175.9,327.5z"/>
		<path class="st1" d="M175.9,503.1l-22,22c-0.3,0.3-0.9,0.3-1.3,0l-6.4-6.4c-0.3-0.3-0.3-0.9,0-1.3l26-26l-6.2-6.2L138.3,513
			c-2.8,2.8-2.8,7.3,0,10.1l9.9,9.9c2.8,2.8,7.3,2.8,10.1,0l22-22c0.3-0.3,0.9-0.3,1.3,0l6.4,6.4c0.3,0.3,0.3,0.9,0,1.3l-26,26
			l6.2,6.2l27.8-27.8c2.8-2.8,2.8-7.3,0-10.1l-9.9-9.9C183.2,500.4,178.7,500.4,175.9,503.1z"/>
		<path class="st1" d="M243.7,39l-29,29c-1.7,1.7-3.9,2.6-6.3,2.6h-28.6c-2.3,0-4.2-1.9-4.2-4.2V37.9c0-2.3,0.9-4.6,2.6-6.3l29-29
			c1.7-1.7,3.9-2.6,6.3-2.6l28.6,0c2.3,0,4.2,1.9,4.2,4.2v28.6C246.3,35.1,245.4,37.3,243.7,39z"/>
		<path class="st1" d="M243.7,119.4l-29-29c-1.7-1.7-3.9-2.6-6.3-2.6h-28.6c-2.3,0-4.2,1.9-4.2,4.2v28.6c0,2.3,0.9,4.6,2.6,6.3
			l29,29c1.7,1.7,3.9,2.6,6.3,2.6h28.6c2.3,0,4.2-1.9,4.2-4.2v-28.6C246.3,123.3,245.4,121,243.7,119.4z"/>
		<path class="st1" d="M155.9,126.8l-29,29c-1.7,1.7-3.9,2.6-6.3,2.6H92c-2.3,0-4.2-1.9-4.2-4.2l0-28.6c0-2.3,0.9-4.6,2.6-6.3l29-29
			c1.7-1.7,3.9-2.6,6.3-2.6h28.6c2.3,0,4.2,1.9,4.2,4.2v28.6C158.5,122.9,157.6,125.1,155.9,126.8z"/>
		<path class="st1" d="M68.1,214.6l-29,29c-1.7,1.7-3.9,2.6-6.3,2.6H4.2c-2.3,0-4.2-1.9-4.2-4.2l0-28.6c0-2.3,0.9-4.6,2.6-6.3l29-29
			c1.7-1.7,3.9-2.6,6.3-2.6h28.6c2.3,0,4.2,1.9,4.2,4.2v28.6C70.7,210.7,69.7,212.9,68.1,214.6z"/>
		<path class="st1" d="M243.7,214.6l-29,29c-1.7,1.7-3.9,2.6-6.3,2.6h-28.6c-2.3,0-4.2-1.9-4.2-4.2v-28.6c0-2.3,0.9-4.6,2.6-6.3
			l29-29c1.7-1.7,3.9-2.6,6.3-2.6h28.6c2.3,0,4.2,1.9,4.2,4.2v28.6C246.3,210.7,245.4,212.9,243.7,214.6z"/>
		<path class="st1" d="M243.7,294.9l-29-29c-1.7-1.7-3.9-2.6-6.3-2.6h-28.6c-2.3,0-4.2,1.9-4.2,4.2v28.6c0,2.3,0.9,4.6,2.6,6.3
			l29,29c1.7,1.7,3.9,2.6,6.3,2.6h28.6c2.3,0,4.2-1.9,4.2-4.2v-28.6C246.3,298.9,245.4,296.6,243.7,294.9z"/>
		<path class="st1" d="M155.9,302.4l-29,29c-1.7,1.7-3.9,2.6-6.3,2.6H92c-2.3,0-4.2-1.9-4.2-4.2l0-28.6c0-2.3,0.9-4.6,2.6-6.3l29-29
			c1.7-1.7,3.9-2.6,6.3-2.6h28.6c2.3,0,4.2,1.9,4.2,4.2v28.6C158.5,298.4,157.6,300.7,155.9,302.4z"/>
		<path class="st1" d="M68.1,390.1l-29,29c-1.7,1.7-3.9,2.6-6.3,2.6H4.2c-2.3,0-4.2-1.9-4.2-4.2L0,389c0-2.3,0.9-4.6,2.6-6.3l29-29
			c1.7-1.7,3.9-2.6,6.3-2.6h28.6c2.3,0,4.2,1.9,4.2,4.2v28.6C70.7,386.2,69.7,388.5,68.1,390.1z"/>
		<path class="st1" d="M31.6,506.9c1.7,1.7,3.9,2.6,6.3,2.6h28.6c2.3,0,4.2-1.9,4.2-4.2v-28.6c0-2.3-0.9-4.6-2.6-6.3l-29-29
			c-1.7-1.7-3.9-2.6-6.3-2.6H4.2c-2.3,0-4.2,1.9-4.2,4.2l0,28.6L31.6,506.9z"/>
		<path class="st1" d="M155.9,382.7l-29-29c-1.7-1.7-3.9-2.6-6.3-2.6H92c-2.3,0-4.2,1.9-4.2,4.2v28.5c0,2.3,0.9,4.6,2.6,6.3l29,29
			c1.7,1.7,3.9,2.6,6.3,2.6h28.6c2.3,0,4.2-1.9,4.2-4.2V389C158.5,386.6,157.6,384.4,155.9,382.7z"/>
		<path class="st1" d="M68.1,565.7l-29,29c-1.7,1.7-3.9,2.6-6.3,2.6H4.2c-2.3,0-4.2-1.9-4.2-4.2l0-28.6c0-2.3,0.9-4.6,2.6-6.3l29-29
			c1.7-1.7,3.9-2.6,6.3-2.6h28.6c2.3,0,4.2,1.9,4.2,4.2v28.6C70.7,561.8,69.7,564,68.1,565.7z"/>
		<path class="st1" d="M243.7,565.7l-29,29c-1.7,1.7-3.9,2.6-6.3,2.6h-28.6c-2.3,0-4.2-1.9-4.2-4.2v-28.6c0-2.3,0.9-4.6,2.6-6.3
			l29-29c1.7-1.7,3.9-2.6,6.3-2.6h28.6c2.3,0,4.2,1.9,4.2,4.2v28.6C246.3,561.8,245.4,564,243.7,565.7z"/>
		<path class="st1" d="M155.9,558.3l-29-29c-1.7-1.7-3.9-2.6-6.3-2.6H92c-2.3,0-4.2,1.9-4.2,4.2v28.6c0,2.3,0.9,4.6,2.6,6.3l29,29
			c1.7,1.7,3.9,2.6,6.3,2.6h28.6c2.3,0,4.2-1.9,4.2-4.2v-28.6C158.5,562.2,157.6,559.9,155.9,558.3z"/>
		<path class="st1" d="M243.7,646.1l-29-29c-1.7-1.7-3.9-2.6-6.3-2.6h-28.6c-2.3,0-4.2,1.9-4.2,4.2v28.6c0,2.3,0.9,4.6,2.6,6.3
			l29,29c1.7,1.7,3.9,2.6,6.3,2.6h28.6c2.3,0,4.2-1.9,4.2-4.2v-28.6C246.3,650,245.4,647.7,243.7,646.1z"/>
		<path class="st1" d="M155.9,653.5l-29,29c-1.7,1.7-3.9,2.6-6.3,2.6H92c-2.3,0-4.2-1.9-4.2-4.2l0-28.6c0-2.3,0.9-4.6,2.6-6.3l29-29
			c1.7-1.7,3.9-2.6,6.3-2.6h28.6c2.3,0,4.2,1.9,4.2,4.2v28.6C158.5,649.6,157.6,651.8,155.9,653.5z"/>
	</g>
</g>
</svg>
